<svg width="21" height="20" viewBox="0 0 21 20" fill="none" xmlns="http://www.w3.org/2000/svg">
<path d="M10.5 0C4.7104 0 0 4.46535 0 9.95377C0 15.4422 4.7104 19.9075 10.5 19.9075C16.2896 19.9075 21 15.4422 21 9.95377C21 4.46535 16.2896 0 10.5 0ZM10.5 19.0781C5.19274 19.0781 0.874986 14.9849 0.874986 9.95377C0.874986 4.9226 5.19274 0.829468 10.5 0.829468C15.8073 0.829468 20.125 4.9226 20.125 9.95377C20.125 14.9849 15.8073 19.0781 10.5 19.0781Z" fill="#04715A"/>
<path d="M16.1875 9.53905H10.9375V4.56221C10.9375 4.33296 10.7419 4.14746 10.5 4.14746C10.2582 4.14746 10.0625 4.33296 10.0625 4.56221V9.53905H4.81251C4.57069 9.53905 4.375 9.72455 4.375 9.9538C4.375 10.183 4.57069 10.3685 4.81251 10.3685H10.0625V15.3454C10.0625 15.5746 10.2582 15.7601 10.5 15.7601C10.7419 15.7601 10.9375 15.5746 10.9375 15.3454V10.3685H16.1875C16.4294 10.3685 16.6251 10.183 16.6251 9.9538C16.6251 9.72455 16.4294 9.53905 16.1875 9.53905Z" fill="#04715A"/>
</svg>
