<svg width="91" height="46" viewBox="0 0 91 46" fill="none" xmlns="http://www.w3.org/2000/svg">
<circle cx="22.9508" cy="22.9508" r="22.9508" fill="#48B9A1"/>
<path d="M28.5822 30.5648V33H16.4932V12.9096H19.3053V30.5648H28.5822ZM45.7688 25.4625C45.7688 26.6607 45.5949 27.7431 45.247 28.7094C44.8991 29.6758 44.4063 30.5068 43.7685 31.2026C43.15 31.8984 42.4059 32.4395 41.5362 32.8261C40.6665 33.1933 39.7195 33.3769 38.6951 33.3769C37.6708 33.3769 36.7238 33.1933 35.8541 32.8261C34.9844 32.4395 34.2306 31.8984 33.5928 31.2026C32.9744 30.5068 32.4912 29.6758 32.1433 28.7094C31.7954 27.7431 31.6215 26.6607 31.6215 25.4625C31.6215 24.2835 31.7954 23.2109 32.1433 22.2445C32.4912 21.2588 32.9744 20.4181 33.5928 19.7224C34.2306 19.0266 34.9844 18.4951 35.8541 18.1279C36.7238 17.7413 37.6708 17.5481 38.6951 17.5481C39.7195 17.5481 40.6665 17.7413 41.5362 18.1279C42.4059 18.4951 43.15 19.0266 43.7685 19.7224C44.4063 20.4181 44.8991 21.2588 45.247 22.2445C45.5949 23.2109 45.7688 24.2835 45.7688 25.4625ZM42.9567 25.4625C42.9567 23.7617 42.5702 22.4185 41.7971 21.4328C41.0434 20.4278 40.0094 19.9253 38.6951 19.9253C37.3809 19.9253 36.3373 20.4278 35.5642 21.4328C34.8104 22.4185 34.4335 23.7617 34.4335 25.4625C34.4335 27.1632 34.8104 28.5161 35.5642 29.5211C36.3373 30.5068 37.3809 30.9997 38.6951 30.9997C40.0094 30.9997 41.0434 30.5068 41.7971 29.5211C42.5702 28.5161 42.9567 27.1632 42.9567 25.4625ZM60.4625 31.4925C60.2306 31.6471 59.7764 31.85 59.0999 32.1013C58.4428 32.3332 57.6697 32.4492 56.7807 32.4492C55.8723 32.4492 55.0123 32.3042 54.2005 32.0143C53.4081 31.7244 52.7123 31.2799 52.1132 30.6808C51.5141 30.0623 51.0406 29.2989 50.6927 28.3905C50.3448 27.4821 50.1708 26.3998 50.1708 25.1436C50.1708 24.0419 50.3351 23.0369 50.6637 22.1286C50.9922 21.2009 51.4658 20.4085 52.0842 19.7513C52.722 19.0749 53.4951 18.5531 54.4035 18.1859C55.3118 17.7993 56.3362 17.606 57.4765 17.606C58.7327 17.606 59.8247 17.7027 60.7524 17.896C61.6994 18.0699 62.4918 18.2342 63.1296 18.3888V31.8404C63.1296 34.1596 62.5305 35.8411 61.3322 36.8847C60.1339 37.9284 58.3172 38.4502 55.882 38.4502C54.935 38.4502 54.0362 38.3729 53.1859 38.2183C52.3548 38.0637 51.63 37.8801 51.0116 37.6675L51.5044 35.3192C52.0456 35.5318 52.7027 35.7154 53.4758 35.8701C54.2682 36.044 55.0896 36.131 55.94 36.131C57.5441 36.131 58.6941 35.8121 59.3898 35.1743C60.1049 34.5365 60.4625 33.5218 60.4625 32.1303V31.4925ZM60.4335 20.3022C60.1629 20.2249 59.7957 20.1572 59.3318 20.0992C58.8873 20.0219 58.2785 19.9833 57.5054 19.9833C56.0559 19.9833 54.935 20.4568 54.1425 21.4038C53.3695 22.3508 52.9829 23.6071 52.9829 25.1726C52.9829 26.0423 53.0892 26.7864 53.3018 27.4048C53.5337 28.0233 53.8333 28.5355 54.2005 28.9413C54.5871 29.3472 55.0219 29.6468 55.5051 29.84C56.0076 30.0333 56.5198 30.1299 57.0416 30.1299C57.7567 30.1299 58.4138 30.0333 59.0129 29.84C59.6121 29.6274 60.0856 29.3859 60.4335 29.1153V20.3022ZM82.5279 25.4625C82.5279 26.6607 82.3539 27.7431 82.006 28.7094C81.6582 29.6758 81.1653 30.5068 80.5275 31.2026C79.9091 31.8984 79.165 32.4395 78.2953 32.8261C77.4255 33.1933 76.4785 33.3769 75.4542 33.3769C74.4299 33.3769 73.4828 33.1933 72.6131 32.8261C71.7434 32.4395 70.9896 31.8984 70.3519 31.2026C69.7334 30.5068 69.2502 29.6758 68.9023 28.7094C68.5544 27.7431 68.3805 26.6607 68.3805 25.4625C68.3805 24.2835 68.5544 23.2109 68.9023 22.2445C69.2502 21.2588 69.7334 20.4181 70.3519 19.7224C70.9896 19.0266 71.7434 18.4951 72.6131 18.1279C73.4828 17.7413 74.4299 17.5481 75.4542 17.5481C76.4785 17.5481 77.4255 17.7413 78.2953 18.1279C79.165 18.4951 79.9091 19.0266 80.5275 19.7224C81.1653 20.4181 81.6582 21.2588 82.006 22.2445C82.3539 23.2109 82.5279 24.2835 82.5279 25.4625ZM79.7158 25.4625C79.7158 23.7617 79.3292 22.4185 78.5562 21.4328C77.8024 20.4278 76.7684 19.9253 75.4542 19.9253C74.1399 19.9253 73.0963 20.4278 72.3232 21.4328C71.5695 22.4185 71.1926 23.7617 71.1926 25.4625C71.1926 27.1632 71.5695 28.5161 72.3232 29.5211C73.0963 30.5068 74.1399 30.9997 75.4542 30.9997C76.7684 30.9997 77.8024 30.5068 78.5562 29.5211C79.3292 28.5161 79.7158 27.1632 79.7158 25.4625Z" fill="#4B3030"/>
</svg>
