<svg width="13" height="13" viewBox="0 0 13 13" fill="none" xmlns="http://www.w3.org/2000/svg">
<path d="M0.250027 6.91837C0.250027 10.0293 3.00291 12.5867 6.44447 12.5867C9.88604 12.5867 12.6389 10.0293 12.6389 6.91837C12.6389 3.80743 9.88604 1.25 6.44447 1.25C3.00291 1.25 0.250027 3.80743 0.250027 6.91837Z" stroke="#E96C24" stroke-width="0.5"/>
<path d="M5.9643 5.423C5.9643 6.03167 5.9863 6.589 6.0303 7.095C6.0743 7.601 6.1293 8.11067 6.1953 8.624H7.1413C7.21464 8.11067 7.2733 7.601 7.3173 7.095C7.3613 6.58167 7.3833 6.02433 7.3833 5.423V3.377H5.9643V5.423ZM5.7993 10.274C5.7993 10.5307 5.88364 10.7397 6.0523 10.901C6.22097 11.0623 6.42997 11.143 6.6793 11.143C6.9213 11.143 7.1303 11.0623 7.3063 10.901C7.47497 10.7397 7.5593 10.5307 7.5593 10.274C7.5593 10.0173 7.47497 9.80833 7.3063 9.647C7.1303 9.47833 6.9213 9.394 6.6793 9.394C6.42997 9.394 6.22097 9.47833 6.0523 9.647C5.88364 9.80833 5.7993 10.0173 5.7993 10.274Z" fill="#F58B8B"/>
</svg>
