<svg width="351" height="293" viewBox="0 0 351 293" fill="none" xmlns="http://www.w3.org/2000/svg">
<g clip-path="url(#clip0)">
<path d="M16.2756 278.629C21.1342 287.64 31.4459 291.508 31.4459 291.508C31.4459 291.508 33.8803 280.767 29.0217 271.756C24.1631 262.746 13.8513 258.878 13.8513 258.878C13.8513 258.878 11.417 269.619 16.2756 278.629Z" fill="#2F2E41"/>
<path d="M19.6154 275.665C28.3872 280.942 31.7656 291.425 31.7656 291.425C31.7656 291.425 20.9219 293.351 12.1501 288.073C3.3783 282.796 0 272.314 0 272.314C0 272.314 10.8436 270.388 19.6154 275.665Z" fill="#35B299"/>
<path d="M216.281 14.0371H161.551V14.819H216.281V14.0371Z" fill="#F2F2F2"/>
<path d="M201.425 14.6235H200.644V21.8557H201.425V14.6235Z" fill="#F2F2F2"/>
<path d="M177.579 14.6235H176.797V21.8557H177.579V14.6235Z" fill="#F2F2F2"/>
<path d="M244.036 51.5664H189.306V52.3483H244.036V51.5664Z" fill="#F2F2F2"/>
<path d="M204.943 44.5298H204.162V51.762H204.943V44.5298Z" fill="#F2F2F2"/>
<path d="M228.79 44.5298H228.008V51.762H228.79V44.5298Z" fill="#F2F2F2"/>
<path d="M316.749 69.1582H262.019V69.9401H316.749V69.1582Z" fill="#F2F2F2"/>
<path d="M277.656 62.1216H276.875V69.3538H277.656V62.1216Z" fill="#F2F2F2"/>
<path d="M301.503 62.1216H300.721V69.3538H301.503V62.1216Z" fill="#F2F2F2"/>
<path d="M311.276 250.549H256.546V251.331H311.276V250.549Z" fill="#F2F2F2"/>
<path d="M272.183 243.512H271.401V250.744H272.183V243.512Z" fill="#F2F2F2"/>
<path d="M296.03 243.512H295.248V250.744H296.03V243.512Z" fill="#F2F2F2"/>
<path d="M217.844 125.061H163.114V125.843H217.844V125.061Z" fill="#F2F2F2"/>
<path d="M178.752 118.024H177.97V125.256H178.752V118.024Z" fill="#F2F2F2"/>
<path d="M202.598 118.024H201.816V125.256H202.598V118.024Z" fill="#F2F2F2"/>
<path d="M235.045 219.274H180.315V220.056H235.045V219.274Z" fill="#F2F2F2"/>
<path d="M195.952 212.238H195.17V219.47H195.952V212.238Z" fill="#F2F2F2"/>
<path d="M219.799 212.238H219.017V219.47H219.799V212.238Z" fill="#F2F2F2"/>
<path d="M322.613 190.737H267.883V191.519H322.613V190.737Z" fill="#F2F2F2"/>
<path d="M283.521 183.7H282.739V190.932H283.521V183.7Z" fill="#F2F2F2"/>
<path d="M307.368 183.7H306.586V190.932H307.368V183.7Z" fill="#F2F2F2"/>
<path d="M141.54 274.504H48.9734V273.838H140.874V241.54H56.7552L52.6688 233.026L53.2693 232.738L57.1743 240.874H141.54V274.504Z" fill="#2F2E41"/>
<path d="M61.293 290.819C65.1548 290.819 68.2854 287.689 68.2854 283.827C68.2854 279.965 65.1548 276.834 61.293 276.834C57.4312 276.834 54.3005 279.965 54.3005 283.827C54.3005 287.689 57.4312 290.819 61.293 290.819Z" fill="#3F3D56"/>
<path d="M130.218 290.819C134.08 290.819 137.211 287.689 137.211 283.827C137.211 279.965 134.08 276.834 130.218 276.834C126.356 276.834 123.226 279.965 123.226 283.827C123.226 287.689 126.356 290.819 130.218 290.819Z" fill="#3F3D56"/>
<path d="M211.464 139.649C213.855 139.649 215.793 137.711 215.793 135.321C215.793 132.93 213.855 130.992 211.464 130.992C209.074 130.992 207.135 132.93 207.135 135.321C207.135 137.711 209.074 139.649 211.464 139.649Z" fill="#3F3D56"/>
<path d="M151.44 230.551H47.3947L24.8818 156.964H174.625L174.488 157.397L151.44 230.551ZM47.8874 229.885H150.951L173.717 157.63H25.7819L47.8874 229.885Z" fill="#2F2E41"/>
<path d="M143.318 226.722H51.9317L32.1577 161.459H163.682L163.562 161.843L143.318 226.722Z" fill="#F2F2F2"/>
<path d="M176.491 150.39L175.847 150.219L180.241 133.656H205.804V134.322H180.754L176.491 150.39Z" fill="#2F2E41"/>
<path d="M167.142 179.273H32.1567V179.939H167.142V179.273Z" fill="#2F2E41"/>
<path d="M159.412 203.808H39.6633V204.474H159.412V203.808Z" fill="#2F2E41"/>
<path d="M100.085 157.297H99.4187V230.218H100.085V157.297Z" fill="#2F2E41"/>
<path d="M129.9 157.277L125.12 230.196L125.784 230.239L130.565 157.32L129.9 157.277Z" fill="#2F2E41"/>
<path d="M69.6168 157.276L68.9521 157.319L73.7048 230.24L74.3695 230.197L69.6168 157.276Z" fill="#2F2E41"/>
<path d="M350.272 291.242H0V292.024H350.272V291.242Z" fill="#2F2E41"/>
<path d="M232.763 24.1888C232.763 24.1888 238.478 40.4539 234.961 42.9562C231.444 45.4585 246.83 65.8941 246.83 65.8941L265.293 60.8895L255.182 43.7903C255.182 43.7903 253.864 26.6911 253.864 24.1888C253.864 21.6865 232.763 24.1888 232.763 24.1888Z" fill="#A0616A"/>
<path opacity="0.1" d="M232.763 24.1888C232.763 24.1888 238.478 40.4539 234.961 42.9562C231.444 45.4585 246.83 65.8941 246.83 65.8941L265.293 60.8895L255.182 43.7903C255.182 43.7903 253.864 26.6911 253.864 24.1888C253.864 21.6865 232.763 24.1888 232.763 24.1888Z" fill="black"/>
<path d="M223.17 140.13C223.17 140.13 221.502 160.982 223.17 171.826C224.839 182.669 227.341 212.697 227.341 212.697C227.341 212.697 227.341 269.416 236.516 270.25C245.691 271.084 252.364 271.918 253.198 268.582C254.032 265.246 249.028 263.577 251.53 261.909C254.032 260.241 254.866 254.402 251.53 247.729C248.194 241.056 251.53 173.494 251.53 173.494L267.378 216.033C267.378 216.033 269.046 251.066 270.714 256.07C272.383 261.075 269.046 270.25 274.885 271.084C280.724 271.918 287.397 266.914 290.733 265.246C294.069 263.577 285.728 263.577 287.397 262.743C289.065 261.909 294.069 259.407 292.401 258.573C290.733 257.739 289.065 217.701 289.065 217.701C289.065 217.701 284.477 132.206 278.638 128.869C272.8 125.533 269.046 131.28 269.046 131.28L223.17 140.13Z" fill="#2F2E41"/>
<path d="M238.184 266.914V273.587C238.184 273.587 230.677 291.726 238.184 291.726C245.691 291.726 251.53 293.605 251.53 291.103V268.582L238.184 266.914Z" fill="#2F2E41"/>
<path d="M287.396 266.902V273.575C287.396 273.575 294.903 291.714 287.396 291.714C279.89 291.714 274.051 293.594 274.051 291.091V268.571L287.396 266.902Z" fill="#2F2E41"/>
<path d="M244.44 36.2837C252.732 36.2837 259.454 29.5617 259.454 21.2698C259.454 12.9778 252.732 6.25586 244.44 6.25586C236.148 6.25586 229.426 12.9778 229.426 21.2698C229.426 29.5617 236.148 36.2837 244.44 36.2837Z" fill="#A0616A"/>
<path d="M239.853 49.2124C239.853 49.2124 244.023 61.724 250.696 59.2217L257.369 56.7193L269.046 136.794C269.046 136.794 259.871 150.139 246.525 141.798C233.18 133.457 239.853 49.2124 239.853 49.2124Z" fill="#35B299"/>
<path d="M251.531 46.7097L255.284 38.7856C255.284 38.7856 277.388 49.212 280.724 52.5484C284.061 55.8848 284.061 60.8895 284.061 60.8895L278.222 81.7421C278.222 81.7421 279.89 127.618 279.89 129.286C279.89 130.954 285.729 140.13 281.558 136.793C277.388 133.457 276.554 130.12 273.217 135.125C269.881 140.13 262.374 145.968 262.374 145.968L251.531 46.7097Z" fill="#3F3D56"/>
<path d="M280.724 106.766L278.222 130.121C278.222 130.121 263.208 143.466 266.544 144.3C269.881 145.135 271.549 141.798 271.549 141.798C271.549 141.798 277.387 147.637 280.724 144.3C284.06 140.964 292.401 109.268 292.401 109.268L280.724 106.766Z" fill="#A0616A"/>
<path d="M244.76 0.0507703C241.432 -0.0682166 237.87 -0.127075 235.064 1.66656C233.773 2.56671 232.64 3.67533 231.713 4.94705C228.979 8.40225 226.618 12.7497 227.633 17.0367L228.812 16.5768C228.812 17.7211 228.558 18.8511 228.067 19.885C228.234 19.4022 228.79 20.1827 228.641 20.6711L227.342 24.9325C229.477 24.1497 232.133 25.7347 232.458 27.9855C232.607 23.0359 233.12 17.3603 237.135 14.462C239.16 13.0005 241.723 12.5543 244.188 12.1581C246.463 11.7926 248.847 11.444 251.026 12.1928C253.205 12.9416 255.06 15.1698 254.566 17.4199C255.571 17.0739 256.694 17.774 257.19 18.7133C257.687 19.6527 257.713 20.7608 257.728 21.8232C258.799 22.58 260.017 21.0772 260.454 19.8407C261.478 16.9384 262.389 13.8488 261.837 10.8209C261.285 7.79287 258.818 4.89918 255.74 4.88891C256.113 4.47856 256.313 3.93899 256.296 3.38432L253.759 3.16998C254.403 3.07879 254.995 2.76652 255.434 2.28666C254.416 3.40742 246.407 0.109648 244.76 0.0507703Z" fill="#2F2E41"/>
<path d="M244.023 44.2072C244.023 44.2072 237.233 37.5533 234.789 37.9609C232.346 38.3685 229.009 44.2072 229.009 44.2072C229.009 44.2072 208.991 50.8801 209.825 57.5529C210.659 64.2258 219.834 96.7559 219.834 96.7559C219.834 96.7559 227.341 135.959 220.668 140.129C213.995 144.3 252.364 155.143 253.198 150.139C254.032 145.134 255.701 95.0877 253.198 87.5807C250.696 80.0738 244.023 44.2072 244.023 44.2072Z" fill="#3F3D56"/>
<path d="M273.217 57.5532H283.531C283.531 57.5532 290.734 89.2493 291.568 92.5857C292.402 95.9221 294.07 111.77 293.236 111.77C292.402 111.77 275.72 108.434 275.72 110.936L273.217 57.5532Z" fill="#3F3D56"/>
<path d="M272.868 136.043H233.385C229.531 118.318 229.21 101.193 233.385 84.8315H272.868C266.496 100.899 266.098 117.907 272.868 136.043Z" fill="#F2F2F2"/>
<path d="M217.332 114.273L229.01 119.277C229.01 119.277 251.53 122.614 251.53 113.439C251.53 104.263 229.01 109.268 229.01 109.268L221.502 106.868L217.332 114.273Z" fill="#A0616A"/>
<path d="M219.834 52.5483L209.825 55.0507L202.318 99.2583C202.318 99.2583 199.816 110.936 203.986 111.77C208.157 112.604 219.834 119.277 219.834 119.277C219.834 119.277 221.502 106.765 224.839 106.765L216.498 100.092L221.502 70.8987L219.834 52.5483Z" fill="#3F3D56"/>
<path d="M78.283 137.961H23.553V138.743H78.283V137.961Z" fill="#F2F2F2"/>
<path d="M39.1901 130.925H38.4082V138.157H39.1901V130.925Z" fill="#F2F2F2"/>
<path d="M63.0365 130.925H62.2546V138.157H63.0365V130.925Z" fill="#F2F2F2"/>
<path d="M97.4382 22.2466H42.7083V23.0284H97.4382V22.2466Z" fill="#F2F2F2"/>
<path d="M82.5831 22.833H81.8013V30.0652H82.5831V22.833Z" fill="#F2F2F2"/>
<path d="M58.7367 22.833H57.9548V30.0652H58.7367V22.833Z" fill="#F2F2F2"/>
<path d="M152.559 99.2598H97.8289V100.042H152.559V99.2598Z" fill="#F2F2F2"/>
<path d="M137.704 99.8462H136.922V107.078H137.704V99.8462Z" fill="#F2F2F2"/>
<path d="M113.857 99.8462H113.075V107.078H113.857V99.8462Z" fill="#F2F2F2"/>
<path d="M59.5186 98.8687H4.78857V99.6505H59.5186V98.8687Z" fill="#F2F2F2"/>
<path d="M44.6632 99.4551H43.8813V106.687H44.6632V99.4551Z" fill="#F2F2F2"/>
<path d="M20.8163 99.4551H20.0344V106.687H20.8163V99.4551Z" fill="#F2F2F2"/>
<path d="M125.194 59.7759H70.4639V60.5577H125.194V59.7759Z" fill="#F2F2F2"/>
<path d="M86.1012 52.7393H85.3193V59.9714H86.1012V52.7393Z" fill="#F2F2F2"/>
<path d="M109.948 52.7393H109.166V59.9714H109.948V52.7393Z" fill="#F2F2F2"/>
<path d="M235.073 94.531L236.289 98.2267L237.444 94.5115L238.18 94.5055L238.217 99.0468L237.646 99.0515L237.632 97.283L237.67 95.5109L236.511 99.0608L236.074 99.0644L234.863 95.5465L234.931 97.3052L234.945 99.0737L234.374 99.0784L234.337 94.537L235.073 94.531ZM241.117 99.023C241.084 98.9505 241.059 98.828 241.043 98.6555C240.85 98.9441 240.601 99.0896 240.298 99.0921C239.992 99.0946 239.752 99.0113 239.578 98.8422C239.406 98.6711 239.319 98.4295 239.316 98.1176C239.314 97.7745 239.428 97.5012 239.659 97.2975C239.89 97.0939 240.209 96.9884 240.614 96.9809L241.02 96.9776L241.017 96.6189C241.015 96.4172 240.969 96.274 240.879 96.1895C240.789 96.105 240.652 96.0635 240.469 96.065C240.303 96.0664 240.168 96.1174 240.065 96.218C239.962 96.3166 239.911 96.4418 239.912 96.5936L239.36 96.5982C239.359 96.4256 239.408 96.2609 239.509 96.1041C239.609 95.9452 239.746 95.8204 239.918 95.7295C240.089 95.6387 240.281 95.5924 240.493 95.5907C240.839 95.5878 241.101 95.672 241.282 95.8431C241.464 96.0121 241.559 96.2609 241.565 96.5894L241.579 98.2924C241.584 98.5523 241.621 98.7776 241.691 98.9684L241.691 99.0183L241.117 99.023ZM240.378 98.5893C240.513 98.5881 240.642 98.5497 240.764 98.4738C240.886 98.3979 240.974 98.3036 241.03 98.1909L241.023 97.3862L240.711 97.3887C240.449 97.395 240.243 97.456 240.092 97.5716C239.941 97.6851 239.866 97.8438 239.868 98.0476C239.87 98.2389 239.909 98.3779 239.987 98.4646C240.064 98.5492 240.195 98.5908 240.378 98.5893ZM244.332 98.1325C244.331 98.014 244.286 97.9125 244.195 97.828C244.105 97.7435 243.932 97.6451 243.675 97.5328C243.377 97.4126 243.166 97.3093 243.043 97.223C242.921 97.1366 242.83 97.0386 242.769 96.9289C242.708 96.8171 242.676 96.6842 242.675 96.5304C242.673 96.2559 242.771 96.0274 242.969 95.8448C243.169 95.6602 243.425 95.5666 243.737 95.564C244.066 95.5613 244.33 95.6548 244.532 95.8445C244.733 96.0341 244.835 96.2787 244.837 96.5781L244.288 96.5826C244.287 96.4308 244.235 96.3023 244.132 96.1971C244.029 96.0898 243.899 96.0368 243.741 96.0381C243.579 96.0395 243.451 96.0831 243.358 96.1692C243.268 96.2531 243.223 96.3657 243.224 96.5071C243.225 96.6194 243.259 96.7096 243.326 96.7777C243.395 96.8457 243.559 96.9349 243.818 97.045C244.229 97.2018 244.509 97.3565 244.658 97.5091C244.807 97.6597 244.882 97.8525 244.884 98.0875C244.886 98.3807 244.787 98.6165 244.587 98.7949C244.387 98.9712 244.117 99.0607 243.778 99.0635C243.427 99.0664 243.141 98.9679 242.921 98.768C242.701 98.5681 242.59 98.3132 242.587 98.0034L243.143 97.9988C243.15 98.1859 243.209 98.3321 243.318 98.4372C243.427 98.5424 243.579 98.5941 243.774 98.5925C243.957 98.591 244.096 98.5493 244.191 98.4675C244.286 98.3835 244.333 98.2719 244.332 98.1325ZM247.587 98.6735C247.406 98.9142 247.139 99.0359 246.788 99.0388C246.482 99.0413 246.251 98.9382 246.093 98.7295C245.935 98.5186 245.854 98.2115 245.848 97.8082L245.83 95.6092L246.379 95.6047L246.397 97.7631C246.401 98.2892 246.561 98.5509 246.877 98.5483C247.212 98.5456 247.442 98.394 247.566 98.0935L247.546 95.5951L248.098 95.5906L248.126 98.9654L247.602 98.9697L247.587 98.6735ZM250.046 97.4056L249.756 97.7449L249.766 98.9519L249.214 98.9565L249.174 94.1656L249.727 94.1611L249.75 97.0275L250.789 95.5685L251.451 95.563L250.389 96.9817L251.619 98.9367L250.976 98.942L250.046 97.4056ZM252.982 97.1475L252.997 98.9254L252.426 98.9301L252.389 94.3887L253.836 94.3768C254.258 94.3734 254.591 94.4975 254.834 94.7492C255.078 94.9988 255.201 95.3336 255.204 95.7537C255.208 96.1903 255.095 96.5282 254.866 96.7671C254.64 97.0039 254.317 97.1282 253.899 97.14L252.982 97.1475ZM252.978 96.6578L253.855 96.6506C254.109 96.6486 254.302 96.5711 254.436 96.4182C254.57 96.2652 254.636 96.0474 254.634 95.7646C254.631 95.4922 254.56 95.2744 254.419 95.1113C254.279 94.9482 254.087 94.8676 253.843 94.8696L252.964 94.8768L252.978 96.6578ZM257.847 98.8856C257.813 98.8131 257.788 98.6906 257.772 98.5181C257.579 98.8067 257.331 98.9522 257.027 98.9547C256.721 98.9572 256.482 98.8739 256.308 98.7048C256.136 98.5336 256.048 98.2921 256.046 97.9802C256.043 97.6371 256.157 97.3637 256.389 97.1601C256.62 96.9565 256.938 96.8509 257.344 96.8434L257.749 96.8401L257.746 96.4814C257.744 96.2797 257.699 96.1366 257.608 96.0521C257.518 95.9676 257.382 95.9261 257.199 95.9276C257.032 95.9289 256.898 95.9799 256.795 96.0806C256.691 96.1792 256.64 96.3044 256.642 96.4562L256.09 96.4607C256.088 96.2881 256.138 96.1234 256.238 95.9666C256.339 95.8078 256.475 95.6829 256.647 95.5921C256.819 95.5013 257.011 95.455 257.223 95.4532C257.568 95.4504 257.831 95.5345 258.011 95.7057C258.193 95.8747 258.288 96.1234 258.295 96.452L258.309 98.155C258.313 98.4149 258.35 98.6402 258.42 98.8309L258.421 98.8808L257.847 98.8856ZM257.107 98.4518C257.242 98.4507 257.371 98.4122 257.493 98.3364C257.615 98.2605 257.704 98.1662 257.759 98.0534L257.752 97.2487L257.44 97.2513C257.178 97.2576 256.972 97.3185 256.821 97.4342C256.67 97.5477 256.596 97.7064 256.597 97.9101C256.599 98.1014 256.639 98.2404 256.716 98.3271C256.794 98.4118 256.924 98.4533 257.107 98.4518ZM261.062 97.9951C261.061 97.8766 261.015 97.7751 260.925 97.6905C260.835 97.606 260.661 97.5076 260.405 97.3954C260.106 97.2751 259.895 97.1718 259.772 97.0855C259.651 96.9992 259.559 96.9011 259.498 96.7914C259.437 96.6796 259.406 96.5468 259.405 96.3929C259.402 96.1185 259.5 95.8899 259.698 95.7074C259.899 95.5228 260.155 95.4292 260.467 95.4266C260.795 95.4239 261.06 95.5174 261.261 95.707C261.462 95.8967 261.564 96.1412 261.567 96.4407L261.018 96.4452C261.016 96.2934 260.964 96.1649 260.862 96.0597C260.759 95.9524 260.628 95.8994 260.47 95.9007C260.308 95.902 260.181 95.9457 260.088 96.0317C259.997 96.1156 259.952 96.2283 259.953 96.3697C259.954 96.482 259.988 96.5722 260.055 96.6402C260.125 96.7083 260.289 96.7974 260.547 96.9076C260.958 97.0643 261.238 97.219 261.387 97.3717C261.536 97.5223 261.611 97.7151 261.613 97.95C261.616 98.2432 261.517 98.479 261.317 98.6574C261.116 98.8337 260.847 98.9233 260.508 98.9261C260.156 98.929 259.871 98.8305 259.651 98.6306C259.431 98.4306 259.319 98.1758 259.317 97.866L259.872 97.8614C259.88 98.0485 259.938 98.1946 260.047 98.2998C260.156 98.4049 260.308 98.4567 260.504 98.4551C260.687 98.4536 260.826 98.4119 260.921 98.33C261.016 98.2461 261.063 98.1344 261.062 97.9951ZM264.334 98.8323C264.3 98.7598 264.275 98.6373 264.259 98.4648C264.066 98.7534 263.818 98.8989 263.514 98.9014C263.209 98.9039 262.969 98.8206 262.795 98.6515C262.623 98.4803 262.536 98.2388 262.533 97.9269C262.53 97.5838 262.644 97.3104 262.876 97.1068C263.107 96.9032 263.425 96.7976 263.831 96.7901L264.236 96.7868L264.233 96.4281C264.232 96.2264 264.186 96.0833 264.096 95.9988C264.005 95.9143 263.869 95.8728 263.686 95.8743C263.52 95.8756 263.385 95.9267 263.282 96.0273C263.179 96.1259 263.128 96.2511 263.129 96.4029L262.577 96.4074C262.575 96.2348 262.625 96.0701 262.726 95.9134C262.826 95.7545 262.962 95.6296 263.134 95.5388C263.306 95.448 263.498 95.4017 263.71 95.3999C264.055 95.3971 264.318 95.4812 264.498 95.6524C264.681 95.8214 264.775 96.0702 264.782 96.3987L264.796 98.1017C264.8 98.3616 264.837 98.5869 264.908 98.7776L264.908 98.8275L264.334 98.8323ZM263.594 98.3985C263.73 98.3974 263.858 98.3589 263.98 98.2831C264.102 98.2072 264.191 98.1129 264.246 98.0001L264.24 97.1954L263.928 97.198C263.666 97.2043 263.459 97.2653 263.308 97.3809C263.158 97.4944 263.083 97.6531 263.085 97.8568C263.086 98.0481 263.126 98.1871 263.203 98.2738C263.281 98.3585 263.411 98.4 263.594 98.3985ZM267.286 95.9507C267.209 95.9368 267.126 95.9302 267.036 95.931C266.753 95.9333 266.557 96.0898 266.447 96.4006L266.467 98.8147L265.915 98.8193L265.887 95.4444L266.424 95.44L266.436 95.7831C266.582 95.5115 266.789 95.3746 267.06 95.3724C267.147 95.3717 267.22 95.3857 267.278 95.4143L267.286 95.9507Z" fill="#4B3030"/>
</g>
<defs>
<clipPath id="clip0">
<rect width="350.272" height="292.403" fill="white"/>
</clipPath>
</defs>
</svg>
