<svg width="928" height="633" viewBox="0 0 928 633" fill="none" xmlns="http://www.w3.org/2000/svg">
<g opacity="0.18" filter="url(#filter0_d)">
<path d="M108.574 555.544C78.0981 533.657 53.6076 506.953 36.6443 477.113C19.681 447.272 10.6122 414.942 10.0089 382.157C9.25647 316.72 56.423 262.641 116.545 218.508C159.362 186.938 311.09 -69.5916 599.121 28.0364C693.172 59.926 689.222 174.092 751.954 238.832C770.764 258.29 794.112 274.621 815.885 292.044C854.563 322.917 889.433 358.272 906.95 399.75C924.467 441.227 922.421 489.674 891.667 525.82C865.45 556.636 822.092 575.152 778.523 588.187C667.073 621.508 545.606 626.236 426.749 623.241C318.285 620.51 189.905 613.239 108.574 555.544Z" fill="#4B3030"/>
</g>
<g clip-path="url(#clip0)">
<path d="M65.2756 480.629C70.1342 489.64 80.4459 493.508 80.4459 493.508C80.4459 493.508 82.8803 482.767 78.0217 473.756C73.1631 464.746 62.8513 460.878 62.8513 460.878C62.8513 460.878 60.417 471.619 65.2756 480.629Z" fill="#2F2E41"/>
<path d="M68.6154 477.665C77.3872 482.942 80.7656 493.425 80.7656 493.425C80.7656 493.425 69.9219 495.351 61.1501 490.073C52.3783 484.796 49 474.314 49 474.314C49 474.314 59.8436 472.388 68.6154 477.665Z" fill="#35B299"/>
<path d="M265.281 216.037H210.551V216.819H265.281V216.037Z" fill="#F2F2F2"/>
<path d="M250.425 216.624H249.644V223.856H250.425V216.624Z" fill="#F2F2F2"/>
<path d="M226.579 216.624H225.797V223.856H226.579V216.624Z" fill="#F2F2F2"/>
<path d="M293.036 253.566H238.306V254.348H293.036V253.566Z" fill="#F2F2F2"/>
<path d="M253.943 246.53H253.162V253.762H253.943V246.53Z" fill="#F2F2F2"/>
<path d="M277.79 246.53H277.008V253.762H277.79V246.53Z" fill="#F2F2F2"/>
<path d="M365.749 271.158H311.019V271.94H365.749V271.158Z" fill="#F2F2F2"/>
<path d="M326.656 264.122H325.875V271.354H326.656V264.122Z" fill="#F2F2F2"/>
<path d="M350.503 264.122H349.721V271.354H350.503V264.122Z" fill="#F2F2F2"/>
<path d="M360.276 452.549H305.546V453.331H360.276V452.549Z" fill="#F2F2F2"/>
<path d="M321.183 445.512H320.401V452.744H321.183V445.512Z" fill="#F2F2F2"/>
<path d="M345.03 445.512H344.248V452.744H345.03V445.512Z" fill="#F2F2F2"/>
<path d="M266.844 327.061H212.114V327.843H266.844V327.061Z" fill="#F2F2F2"/>
<path d="M227.752 320.024H226.97V327.256H227.752V320.024Z" fill="#F2F2F2"/>
<path d="M251.598 320.024H250.816V327.256H251.598V320.024Z" fill="#F2F2F2"/>
<path d="M284.045 421.274H229.315V422.056H284.045V421.274Z" fill="#F2F2F2"/>
<path d="M244.952 414.238H244.17V421.47H244.952V414.238Z" fill="#F2F2F2"/>
<path d="M268.799 414.238H268.017V421.47H268.799V414.238Z" fill="#F2F2F2"/>
<path d="M371.613 392.737H316.883V393.519H371.613V392.737Z" fill="#F2F2F2"/>
<path d="M332.521 385.7H331.739V392.932H332.521V385.7Z" fill="#F2F2F2"/>
<path d="M356.368 385.7H355.586V392.932H356.368V385.7Z" fill="#F2F2F2"/>
<path d="M190.54 476.504H97.9734V475.838H189.874V443.54H105.755L101.669 435.026L102.269 434.738L106.174 442.874H190.54V476.504Z" fill="#2F2E41"/>
<path d="M110.293 492.819C114.155 492.819 117.285 489.689 117.285 485.827C117.285 481.965 114.155 478.834 110.293 478.834C106.431 478.834 103.301 481.965 103.301 485.827C103.301 489.689 106.431 492.819 110.293 492.819Z" fill="#3F3D56"/>
<path d="M179.218 492.819C183.08 492.819 186.211 489.689 186.211 485.827C186.211 481.965 183.08 478.834 179.218 478.834C175.356 478.834 172.226 481.965 172.226 485.827C172.226 489.689 175.356 492.819 179.218 492.819Z" fill="#3F3D56"/>
<path d="M260.464 341.649C262.855 341.649 264.793 339.711 264.793 337.321C264.793 334.93 262.855 332.992 260.464 332.992C258.074 332.992 256.135 334.93 256.135 337.321C256.135 339.711 258.074 341.649 260.464 341.649Z" fill="#3F3D56"/>
<path d="M200.44 432.551H96.3947L73.8818 358.964H223.625L223.488 359.397L200.44 432.551ZM96.8874 431.885H199.951L222.717 359.63H74.7819L96.8874 431.885Z" fill="#2F2E41"/>
<path d="M192.318 428.722H100.932L81.1577 363.459H212.682L212.562 363.843L192.318 428.722Z" fill="#F2F2F2"/>
<path d="M225.491 352.39L224.847 352.219L229.241 335.656H254.804V336.322H229.754L225.491 352.39Z" fill="#2F2E41"/>
<path d="M216.142 381.273H81.1567V381.939H216.142V381.273Z" fill="#2F2E41"/>
<path d="M208.412 405.808H88.6633V406.474H208.412V405.808Z" fill="#2F2E41"/>
<path d="M149.085 359.297H148.419V432.218H149.085V359.297Z" fill="#2F2E41"/>
<path d="M178.9 359.277L174.12 432.196L174.784 432.239L179.565 359.32L178.9 359.277Z" fill="#2F2E41"/>
<path d="M118.617 359.276L117.952 359.319L122.705 432.24L123.369 432.197L118.617 359.276Z" fill="#2F2E41"/>
<path d="M399.272 493.242H49V494.024H399.272V493.242Z" fill="#2F2E41"/>
<path d="M281.763 226.189C281.763 226.189 287.478 242.454 283.961 244.956C280.444 247.459 295.83 267.894 295.83 267.894L314.293 262.889L304.182 245.79C304.182 245.79 302.864 228.691 302.864 226.189C302.864 223.686 281.763 226.189 281.763 226.189Z" fill="#A0616A"/>
<path opacity="0.1" d="M281.763 226.189C281.763 226.189 287.478 242.454 283.961 244.956C280.444 247.459 295.83 267.894 295.83 267.894L314.293 262.889L304.182 245.79C304.182 245.79 302.864 228.691 302.864 226.189C302.864 223.686 281.763 226.189 281.763 226.189Z" fill="black"/>
<path d="M272.17 342.13C272.17 342.13 270.502 362.982 272.17 373.826C273.839 384.669 276.341 414.697 276.341 414.697C276.341 414.697 276.341 471.416 285.516 472.25C294.691 473.084 301.364 473.918 302.198 470.582C303.032 467.246 298.028 465.577 300.53 463.909C303.032 462.241 303.866 456.402 300.53 449.729C297.194 443.056 300.53 375.494 300.53 375.494L316.378 418.033C316.378 418.033 318.046 453.066 319.714 458.07C321.383 463.075 318.046 472.25 323.885 473.084C329.724 473.918 336.397 468.914 339.733 467.246C343.069 465.577 334.728 465.577 336.397 464.743C338.065 463.909 343.069 461.407 341.401 460.573C339.733 459.739 338.065 419.701 338.065 419.701C338.065 419.701 333.477 334.206 327.638 330.869C321.8 327.533 318.046 333.28 318.046 333.28L272.17 342.13Z" fill="#2F2E41"/>
<path d="M287.184 468.914V475.587C287.184 475.587 279.677 493.726 287.184 493.726C294.691 493.726 300.53 495.605 300.53 493.103V470.582L287.184 468.914Z" fill="#2F2E41"/>
<path d="M336.396 468.902V475.575C336.396 475.575 343.903 493.714 336.396 493.714C328.89 493.714 323.051 495.594 323.051 493.091V470.571L336.396 468.902Z" fill="#2F2E41"/>
<path d="M293.44 238.284C301.732 238.284 308.454 231.562 308.454 223.27C308.454 214.978 301.732 208.256 293.44 208.256C285.148 208.256 278.426 214.978 278.426 223.27C278.426 231.562 285.148 238.284 293.44 238.284Z" fill="#A0616A"/>
<path d="M288.853 251.212C288.853 251.212 293.023 263.724 299.696 261.222L306.369 258.719L318.046 338.794C318.046 338.794 308.871 352.139 295.525 343.798C282.18 335.457 288.853 251.212 288.853 251.212Z" fill="#35B299"/>
<path d="M300.531 248.71L304.284 240.786C304.284 240.786 326.388 251.212 329.724 254.548C333.061 257.885 333.061 262.889 333.061 262.889L327.222 283.742C327.222 283.742 328.89 329.618 328.89 331.286C328.89 332.954 334.729 342.13 330.558 338.793C326.388 335.457 325.554 332.12 322.217 337.125C318.881 342.13 311.374 347.968 311.374 347.968L300.531 248.71Z" fill="#3F3D56"/>
<path d="M329.724 308.766L327.222 332.121C327.222 332.121 312.208 345.466 315.544 346.3C318.881 347.135 320.549 343.798 320.549 343.798C320.549 343.798 326.387 349.637 329.724 346.3C333.06 342.964 341.401 311.268 341.401 311.268L329.724 308.766Z" fill="#A0616A"/>
<path d="M293.76 202.051C290.432 201.932 286.87 201.873 284.064 203.667C282.773 204.567 281.64 205.675 280.713 206.947C277.979 210.402 275.618 214.75 276.633 219.037L277.812 218.577C277.812 219.721 277.558 220.851 277.067 221.885C277.234 221.402 277.79 222.183 277.641 222.671L276.342 226.933C278.477 226.15 281.133 227.735 281.458 229.986C281.607 225.036 282.12 219.36 286.135 216.462C288.16 215 290.723 214.554 293.188 214.158C295.463 213.793 297.847 213.444 300.026 214.193C302.205 214.942 304.06 217.17 303.566 219.42C304.571 219.074 305.694 219.774 306.19 220.713C306.687 221.653 306.713 222.761 306.728 223.823C307.799 224.58 309.017 223.077 309.454 221.841C310.478 218.938 311.389 215.849 310.837 212.821C310.285 209.793 307.818 206.899 304.74 206.889C305.113 206.479 305.313 205.939 305.296 205.384L302.759 205.17C303.403 205.079 303.995 204.767 304.434 204.287C303.416 205.407 295.407 202.11 293.76 202.051Z" fill="#2F2E41"/>
<path d="M293.023 246.207C293.023 246.207 286.233 239.553 283.789 239.961C281.346 240.368 278.009 246.207 278.009 246.207C278.009 246.207 257.991 252.88 258.825 259.553C259.659 266.226 268.834 298.756 268.834 298.756C268.834 298.756 276.341 337.959 269.668 342.129C262.995 346.3 301.364 357.143 302.198 352.139C303.032 347.134 304.701 297.088 302.198 289.581C299.696 282.074 293.023 246.207 293.023 246.207Z" fill="#3F3D56"/>
<path d="M322.217 259.553H332.531C332.531 259.553 339.734 291.249 340.568 294.586C341.402 297.922 343.07 313.77 342.236 313.77C341.402 313.77 324.72 310.434 324.72 312.936L322.217 259.553Z" fill="#3F3D56"/>
<path d="M321.868 338.043H282.385C278.531 320.318 278.21 303.193 282.385 286.832H321.868C315.496 302.899 315.098 319.907 321.868 338.043Z" fill="#F2F2F2"/>
<path d="M266.332 316.273L278.01 321.277C278.01 321.277 300.53 324.614 300.53 315.439C300.53 306.263 278.01 311.268 278.01 311.268L270.502 308.868L266.332 316.273Z" fill="#A0616A"/>
<path d="M268.834 254.548L258.825 257.051L251.318 301.258C251.318 301.258 248.816 312.936 252.986 313.77C257.157 314.604 268.834 321.277 268.834 321.277C268.834 321.277 270.502 308.765 273.839 308.765L265.498 302.092L270.502 272.899L268.834 254.548Z" fill="#3F3D56"/>
<path d="M127.283 339.961H72.553V340.743H127.283V339.961Z" fill="#F2F2F2"/>
<path d="M88.1901 332.925H87.4082V340.157H88.1901V332.925Z" fill="#F2F2F2"/>
<path d="M112.036 332.925H111.255V340.157H112.036V332.925Z" fill="#F2F2F2"/>
<path d="M146.438 224.247H91.7083V225.028H146.438V224.247Z" fill="#F2F2F2"/>
<path d="M131.583 224.833H130.801V232.065H131.583V224.833Z" fill="#F2F2F2"/>
<path d="M107.737 224.833H106.955V232.065H107.737V224.833Z" fill="#F2F2F2"/>
<path d="M201.559 301.26H146.829V302.042H201.559V301.26Z" fill="#F2F2F2"/>
<path d="M186.704 301.846H185.922V309.078H186.704V301.846Z" fill="#F2F2F2"/>
<path d="M162.857 301.846H162.075V309.078H162.857V301.846Z" fill="#F2F2F2"/>
<path d="M108.519 300.869H53.7886V301.651H108.519V300.869Z" fill="#F2F2F2"/>
<path d="M93.6632 301.455H92.8813V308.687H93.6632V301.455Z" fill="#F2F2F2"/>
<path d="M69.8163 301.455H69.0344V308.687H69.8163V301.455Z" fill="#F2F2F2"/>
<path d="M174.194 261.776H119.464V262.558H174.194V261.776Z" fill="#F2F2F2"/>
<path d="M135.101 254.739H134.319V261.971H135.101V254.739Z" fill="#F2F2F2"/>
<path d="M158.948 254.739H158.166V261.971H158.948V254.739Z" fill="#F2F2F2"/>
<path d="M284.073 296.531L285.289 300.227L286.444 296.512L287.18 296.505L287.217 301.047L286.646 301.052L286.632 299.283L286.67 297.511L285.511 301.061L285.074 301.064L283.863 297.546L283.931 299.305L283.945 301.074L283.374 301.078L283.337 296.537L284.073 296.531ZM290.117 301.023C290.084 300.95 290.059 300.828 290.043 300.656C289.85 300.944 289.601 301.09 289.298 301.092C288.992 301.095 288.752 301.011 288.578 300.842C288.406 300.671 288.319 300.43 288.316 300.118C288.314 299.775 288.428 299.501 288.659 299.298C288.89 299.094 289.209 298.988 289.614 298.981L290.02 298.978L290.017 298.619C290.015 298.417 289.969 298.274 289.879 298.19C289.789 298.105 289.652 298.064 289.469 298.065C289.303 298.066 289.168 298.117 289.065 298.218C288.962 298.317 288.911 298.442 288.912 298.594L288.36 298.598C288.359 298.426 288.408 298.261 288.509 298.104C288.609 297.945 288.746 297.82 288.918 297.73C289.089 297.639 289.281 297.592 289.493 297.591C289.839 297.588 290.101 297.672 290.282 297.843C290.464 298.012 290.559 298.261 290.565 298.589L290.579 300.292C290.584 300.552 290.621 300.778 290.691 300.968L290.691 301.018L290.117 301.023ZM289.378 300.589C289.513 300.588 289.642 300.55 289.764 300.474C289.886 300.398 289.974 300.304 290.03 300.191L290.023 299.386L289.711 299.389C289.449 299.395 289.243 299.456 289.092 299.572C288.941 299.685 288.866 299.844 288.868 300.048C288.87 300.239 288.909 300.378 288.987 300.465C289.064 300.549 289.195 300.591 289.378 300.589ZM293.332 300.133C293.331 300.014 293.286 299.912 293.195 299.828C293.105 299.743 292.932 299.645 292.675 299.533C292.377 299.413 292.166 299.309 292.043 299.223C291.921 299.137 291.83 299.039 291.769 298.929C291.708 298.817 291.676 298.684 291.675 298.53C291.673 298.256 291.771 298.027 291.969 297.845C292.169 297.66 292.425 297.567 292.737 297.564C293.066 297.561 293.33 297.655 293.532 297.844C293.733 298.034 293.835 298.279 293.837 298.578L293.288 298.583C293.287 298.431 293.235 298.302 293.132 298.197C293.029 298.09 292.899 298.037 292.741 298.038C292.579 298.039 292.451 298.083 292.358 298.169C292.268 298.253 292.223 298.366 292.224 298.507C292.225 298.619 292.259 298.71 292.326 298.778C292.395 298.846 292.559 298.935 292.818 299.045C293.229 299.202 293.509 299.356 293.658 299.509C293.807 299.66 293.882 299.852 293.884 300.087C293.886 300.381 293.787 300.616 293.587 300.795C293.387 300.971 293.117 301.061 292.778 301.064C292.427 301.066 292.141 300.968 291.921 300.768C291.701 300.568 291.59 300.313 291.587 300.003L292.143 299.999C292.15 300.186 292.209 300.332 292.318 300.437C292.427 300.542 292.579 300.594 292.774 300.593C292.957 300.591 293.096 300.549 293.191 300.467C293.286 300.384 293.333 300.272 293.332 300.133ZM296.587 300.674C296.406 300.914 296.139 301.036 295.788 301.039C295.482 301.041 295.251 300.938 295.093 300.729C294.935 300.519 294.854 300.212 294.848 299.808L294.83 297.609L295.379 297.605L295.397 299.763C295.401 300.289 295.561 300.551 295.877 300.548C296.212 300.546 296.442 300.394 296.566 300.093L296.546 297.595L297.098 297.591L297.126 300.965L296.602 300.97L296.587 300.674ZM299.046 299.406L298.756 299.745L298.766 300.952L298.214 300.956L298.174 296.166L298.727 296.161L298.75 299.027L299.789 297.568L300.451 297.563L299.389 298.982L300.619 300.937L299.976 300.942L299.046 299.406ZM301.982 299.148L301.997 300.925L301.426 300.93L301.389 296.389L302.836 296.377C303.258 296.373 303.591 296.497 303.834 296.749C304.078 296.999 304.201 297.334 304.204 297.754C304.208 298.19 304.095 298.528 303.866 298.767C303.64 299.004 303.317 299.128 302.899 299.14L301.982 299.148ZM301.978 298.658L302.855 298.651C303.109 298.649 303.302 298.571 303.436 298.418C303.57 298.265 303.636 298.047 303.634 297.765C303.631 297.492 303.56 297.274 303.419 297.111C303.279 296.948 303.087 296.868 302.843 296.87L301.964 296.877L301.978 298.658ZM306.847 300.886C306.813 300.813 306.788 300.691 306.772 300.518C306.579 300.807 306.331 300.952 306.027 300.955C305.721 300.957 305.482 300.874 305.308 300.705C305.136 300.534 305.048 300.292 305.046 299.98C305.043 299.637 305.157 299.364 305.389 299.16C305.62 298.956 305.938 298.851 306.344 298.843L306.749 298.84L306.746 298.481C306.744 298.28 306.699 298.137 306.608 298.052C306.518 297.968 306.382 297.926 306.199 297.928C306.032 297.929 305.898 297.98 305.795 298.081C305.691 298.179 305.64 298.304 305.642 298.456L305.09 298.461C305.088 298.288 305.138 298.123 305.238 297.967C305.339 297.808 305.475 297.683 305.647 297.592C305.819 297.501 306.011 297.455 306.223 297.453C306.568 297.45 306.831 297.535 307.011 297.706C307.193 297.875 307.288 298.123 307.295 298.452L307.309 300.155C307.313 300.415 307.35 300.64 307.42 300.831L307.421 300.881L306.847 300.886ZM306.107 300.452C306.242 300.451 306.371 300.412 306.493 300.336C306.615 300.26 306.704 300.166 306.759 300.053L306.752 299.249L306.44 299.251C306.178 299.258 305.972 299.319 305.821 299.434C305.67 299.548 305.596 299.706 305.597 299.91C305.599 300.101 305.639 300.24 305.716 300.327C305.794 300.412 305.924 300.453 306.107 300.452ZM310.062 299.995C310.061 299.877 310.015 299.775 309.925 299.691C309.835 299.606 309.661 299.508 309.405 299.395C309.106 299.275 308.895 299.172 308.772 299.086C308.651 298.999 308.559 298.901 308.498 298.791C308.437 298.68 308.406 298.547 308.405 298.393C308.402 298.118 308.5 297.89 308.698 297.707C308.899 297.523 309.155 297.429 309.467 297.427C309.795 297.424 310.06 297.517 310.261 297.707C310.462 297.897 310.564 298.141 310.567 298.441L310.018 298.445C310.016 298.293 309.964 298.165 309.862 298.06C309.759 297.952 309.628 297.899 309.47 297.901C309.308 297.902 309.181 297.946 309.088 298.032C308.997 298.116 308.952 298.228 308.953 298.37C308.954 298.482 308.988 298.572 309.055 298.64C309.125 298.708 309.289 298.797 309.547 298.908C309.958 299.064 310.238 299.219 310.387 299.372C310.536 299.522 310.611 299.715 310.613 299.95C310.616 300.243 310.517 300.479 310.317 300.657C310.116 300.834 309.847 300.923 309.508 300.926C309.156 300.929 308.871 300.83 308.651 300.631C308.431 300.431 308.319 300.176 308.317 299.866L308.872 299.861C308.88 300.048 308.938 300.195 309.047 300.3C309.156 300.405 309.308 300.457 309.504 300.455C309.687 300.454 309.826 300.412 309.921 300.33C310.016 300.246 310.063 300.134 310.062 299.995ZM313.334 300.832C313.3 300.76 313.275 300.637 313.259 300.465C313.066 300.753 312.818 300.899 312.514 300.901C312.209 300.904 311.969 300.821 311.795 300.652C311.623 300.48 311.536 300.239 311.533 299.927C311.53 299.584 311.644 299.31 311.876 299.107C312.107 298.903 312.425 298.798 312.831 298.79L313.236 298.787L313.233 298.428C313.232 298.226 313.186 298.083 313.096 297.999C313.005 297.914 312.869 297.873 312.686 297.874C312.52 297.876 312.385 297.927 312.282 298.027C312.179 298.126 312.128 298.251 312.129 298.403L311.577 298.407C311.575 298.235 311.625 298.07 311.726 297.913C311.826 297.754 311.962 297.63 312.134 297.539C312.306 297.448 312.498 297.402 312.71 297.4C313.055 297.397 313.318 297.481 313.498 297.652C313.681 297.821 313.775 298.07 313.782 298.399L313.796 300.102C313.8 300.362 313.837 300.587 313.908 300.778L313.908 300.828L313.334 300.832ZM312.594 300.399C312.73 300.397 312.858 300.359 312.98 300.283C313.102 300.207 313.191 300.113 313.246 300L313.24 299.195L312.928 299.198C312.666 299.204 312.459 299.265 312.308 299.381C312.158 299.494 312.083 299.653 312.085 299.857C312.086 300.048 312.126 300.187 312.203 300.274C312.281 300.358 312.411 300.4 312.594 300.399ZM316.286 297.951C316.209 297.937 316.126 297.93 316.036 297.931C315.753 297.933 315.557 298.09 315.447 298.401L315.467 300.815L314.915 300.819L314.887 297.444L315.424 297.44L315.436 297.783C315.582 297.512 315.789 297.375 316.06 297.372C316.147 297.372 316.22 297.386 316.278 297.414L316.286 297.951Z" fill="#4B3030"/>
</g>
<defs>
<filter id="filter0_d" x="0" y="0" width="928" height="638" filterUnits="userSpaceOnUse" color-interpolation-filters="sRGB">
<feFlood flood-opacity="0" result="BackgroundImageFix"/>
<feColorMatrix in="SourceAlpha" type="matrix" values="0 0 0 0 0 0 0 0 0 0 0 0 0 0 0 0 0 0 127 0"/>
<feOffset dy="4"/>
<feGaussianBlur stdDeviation="5"/>
<feColorMatrix type="matrix" values="0 0 0 0 0.745098 0 0 0 0 0.694118 0 0 0 0 0.686275 0 0 0 1 0"/>
<feBlend mode="normal" in2="BackgroundImageFix" result="effect1_dropShadow"/>
<feBlend mode="normal" in="SourceGraphic" in2="effect1_dropShadow" result="shape"/>
</filter>
<clipPath id="clip0">
<rect x="49" y="202" width="350.272" height="292.403" fill="white"/>
</clipPath>
</defs>
</svg>
