<?xml version="1.0" encoding="utf-8"?>
<!-- Generator: Adobe Illustrator 22.0.0, SVG Export Plug-In . SVG Version: 6.00 Build 0)  -->
<svg version="1.1" id="Layer_1" xmlns="http://www.w3.org/2000/svg" xmlns:xlink="http://www.w3.org/1999/xlink" x="0px" y="0px"
	 viewBox="0 0 1920 400" style="enable-background:new 0 0 1920 400;" xml:space="preserve">
<style type="text/css">
	.st0{fill:#542D0E;}
	.st1{fill:#E96C24;}
	.st2{fill:#95C83D;}
</style>
<g>
	<g>
		<path class="st0" d="M301.4,129.9c-21.5,0-36.8,10.1-46.9,27.3c-9.5-16.9-26.7-27.3-50.3-27.3c-16.9,0-31,7.7-41.1,21.2
			c-4-11.6-12.3-19.9-29.4-19.9h-2.5c-4.6,0-8.3,3.7-8.3,8.3v136.1c0,4.6,3.7,8.3,8.3,8.3h26.4c4.6,0,8.3-3.7,8.3-8.3
			c0,0,0-29.1,0-57c0.6-32.2,9.8-47.2,29.7-47.2c15.6,0,24.5,7.7,24.5,25.1v79.1c0,4.6,3.7,8.3,8.3,8.3h26.4c4.6,0,8.3-3.7,8.3-8.3
			V221c0-34,9.5-49.7,30-49.7c15.3,0,24.2,7.7,24.2,25.1v79.1c0,4.6,3.7,8.3,8.3,8.3H352c4.6,0,8.3-3.7,8.3-8.3v-82.5
			C360.3,155.7,338.8,129.9,301.4,129.9z"/>
		<path class="st0" d="M518.8,131.1h-2.1c-13.8,0-21.8,5.2-26.4,13.2c-11.3-7.4-26.7-14.4-47.5-14.4c-33.7,0-66.5,31-66.5,84.9
			c0,41.1,25.1,70.2,64.4,70.2c19.3,0,34.9-8.3,46-22.4c3.7,12.3,12,21.2,30,21.2h2.1c4.6,0,8.6-3.7,8.6-8.3V139.4
			C527.4,134.8,523.4,131.1,518.8,131.1z M484.4,196.4c-0.9,32.2-15.6,47.2-35.6,47.2c-17.5,0-30-9.5-30-30.7
			c0-32.2,16.6-41.7,37.7-41.7c10.1,0,20.8,4,27.9,6.7V196.4z"/>
		<path class="st0" d="M608.3,188.2c-11.3-4-22.1-5.5-22.1-12c0-4.3,4.9-7.1,11.6-7.1c12.9,0,23.3,4,28.8,5.5
			c4,0.9,10.7-0.3,12.6-7.7c1.8-7.4,3.7-14.4,5.2-20.8c1.2-5.5-2.5-8.6-8.6-10.4c-11.3-3.4-26.4-5.8-40.8-5.8
			c-31.9,0-51.8,22.1-51.8,48.4c0,32.5,31.6,42.6,43.5,46.3c14.7,4.3,24.2,8,24.2,13.5c0,4.3-1.5,7.7-15.3,7.7
			c-12.9,0-25.8-3.1-31.3-4.6c-4-1.2-10.7-0.3-12.9,7c-1.8,6.7-4.3,14.4-5.8,20.8c-1.5,5.2,2.1,9.2,8,10.7
			c12.3,3.7,26.7,5.2,44.1,5.2c37.4,0,56.1-21.8,56.1-51.8C654,201,622.4,193.1,608.3,188.2z"/>
		<path class="st0" d="M803.3,131.1h-2.5c-27,0-32.2,20.2-32.2,41.7c0,21.8,0.3,45.7,0.3,45.7c0,17.5-10.7,25.1-27.9,25.1
			c-17.5,0-27.9-7.7-27.9-25.1v-79.1c0-4.6-4-8.3-8.6-8.3h-2.1c-27,0-32.2,20.2-32.2,41.7c0,21.8,0,45.7,0,45.7
			c0,39.2,29.7,66.5,70.8,66.5c40.8,0,70.5-27.3,70.5-66.5v-79.1C811.5,134.8,807.9,131.1,803.3,131.1z"/>
		<path class="st0" d="M975.9,275.5c0,0-7.1-16.9-15.3-36.5c-7.1-16.2-13.8-27-23.3-34.3c8.6-8,15.3-19.3,23-34.3
			c9.5-19.6,15-31,15-31c2.1-4.6,0.3-8.3-4.3-8.3h-27.6c-4.6,0-10.1,3.7-12.3,8.3c0,0-1.2,2.5-10.7,21.8
			c-9.5,19-13.5,23.9-33.1,25.1h-10.7c0-33.7,0-66.5,0-76c0-21.5-5.2-41.7-32.2-41.7h-2.5c-4.6,0-8.3,3.7-8.3,8.3v198.7
			c0,4.6,3.7,8.3,8.3,8.3h26.4c4.6,0,8.3-3.7,8.3-8.3c0,0,0-20.8,0-47.8c30.3,0,35.9,2.5,45.4,24.8c8.3,19.3,9.8,23,9.8,23
			c1.8,4.6,7.1,8.3,11.6,8.3H971C975.6,283.8,977.7,280.1,975.9,275.5z"/>
	</g>
	<path class="st1" d="M1079.5,129.9c-19.3,0-34.9,8.3-46.3,22.7c-3.4-12.6-11.6-21.5-29.7-21.5h-2.5c-4.6,0-8.3,3.7-8.3,8.3v204.2
		c0,4.6,3.7,8.3,8.3,8.3h2.5c27,0,32.2-20.2,32.2-41.7c0-7,0-19.9,0-34.6c0,0,0-0.3,0-1.2c10.4,5.8,24.2,10.7,41.7,10.7
		c33.7,0,66.5-30.7,66.5-84.9C1143.9,159,1118.7,129.9,1079.5,129.9z M1063.5,243.6c-10.1,0-21.2-3.7-27.9-6.4c0-5.8,0-11.6,0-17.8
		c0.6-32.8,15.3-48.1,35.6-48.1c17.2,0,29.7,9.5,29.7,30.7C1100.9,234.1,1084.7,243.6,1063.5,243.6z"/>
	<path class="st1" d="M1296.5,131.1h-2.1c-13.8,0-21.8,5.2-26.4,13.2c-11.3-7.4-26.7-14.4-47.5-14.4c-33.7,0-66.5,31-66.5,84.9
		c0,41.1,25.1,70.2,64.4,70.2c19.3,0,34.9-8.3,46-22.4c3.7,12.3,12,21.2,30,21.2h2.1c4.6,0,8.6-3.7,8.6-8.3V139.4
		C1305.1,134.8,1301.1,131.1,1296.5,131.1z M1262.2,196.4c-0.9,32.2-15.6,47.2-35.6,47.2c-17.5,0-30-9.5-30-30.7
		c0-32.2,16.6-41.7,37.7-41.7c10.1,0,20.8,4,27.9,6.7V196.4z"/>
	<path class="st1" d="M1651.2,131.1h-2.1c-13.8,0-21.8,5.2-26.4,13.2c-11.3-7.4-26.7-14.4-47.5-14.4c-33.7,0-66.5,31-66.5,84.9
		c0,41.1,25.1,70.2,64.4,70.2c19.3,0,34.9-8.3,46-22.4c3.7,12.3,12,21.2,30,21.2h2.1c4.6,0,8.6-3.7,8.6-8.3V139.4
		C1659.8,134.8,1655.8,131.1,1651.2,131.1z M1616.9,196.4c-0.9,32.2-15.6,47.2-35.6,47.2c-17.5,0-30-9.5-30-30.7
		c0-32.2,16.6-41.7,37.7-41.7c10.1,0,20.8,4,27.9,6.7V196.4z"/>
	<path class="st1" d="M1787.9,131.1c-4.9-0.9-9.8-1.2-15.3-1.2c-19.3,0-34.9,8.3-46.3,22.7c-3.4-12.6-11.7-21.5-29.7-21.5h-2.5
		c-4.6,0-8.3,3.7-8.3,8.3v136.1c0,4.6,3.7,8.3,8.3,8.3h26.4c4.6,0,8.3-3.7,8.3-8.3c0,0,0-28.2,0-56.1c0.6-32.8,14.7-46.9,34.9-48.1
		c9.5-0.6,18.4,3.7,21.5-3.1c3.1-6.4,8.3-17.5,11-24.2C1798.1,139.7,1797.1,133.6,1787.9,131.1z"/>
	<path class="st1" d="M1471.4,199.3c-31.3,7.1-60.1,3.6-70.2,2.1c-6.4-0.9-11.2-2.3-10.6-4.4c0.6-2.4,6.3-1.1,9.9-0.7
		c3.4,0.4,7.1,0.5,6.8-1c-0.3-1.7-11.3-2.4-18.3-3.8c-3.7-0.7-6.4-1.8-6.2-3.8c0.2-1.9,2.2-3,6.6-1.8c3.7,0.9,16.7,3.3,17,1.3
		c0.3-2.1-5.9-2.5-10.4-3.7c-5.7-1.5-17.5-3.6-16.3-7.6c1-3.4,6.6-1.8,12.8,0.5c5,1.8,13.4,4.4,14.3,2.9c1.1-1.9-6.8-4.2-15.1-8.7
		c-2.7-1.5-6.8-4.1-4.6-6.9c2.2-2.7,6.6,1.4,11.3,3.8c6.3,3.2,16.2,8.7,17.9,7.3c1.2-1-5.9-5.9-7.9-8.1c-4.2-4.6,1.2-9.1,5.3-5
		c2,2,9.8,10.3,22.3,13.9c13.4,3.9,28.4,4.1,43.8-0.7c4.8-1.5,8.1-6.1,8.1-11.1v-0.1c0-12-4.6-23.1-12.6-32.5
		c-1.6-1.9-4.3-2.5-6.7-1.8c-17.9,5.5-39,8.7-61.5,8.7c-22.7,0-43.8-3.2-61.9-8.8c-2.4-0.8-5.1-0.1-6.7,1.8
		c-8,9.4-12.7,20.6-12.7,32.7c0,36.4,39.3,54.5,56.1,56.7c12.8,1.7,23.5-1.9,26.1-2.8c5.5-1.9,8.4,4.5,2.6,6.8
		c-2.8,1.1-11.3,2.5-10.6,3.9c0.9,2.1,12.2,1.4,19.3,1.2c5.2-0.1,11-1.8,11.8,1.5c0.8,3.4-4,4-7.2,4.2c-9.4,0.5-17.5-0.9-17.4,1.3
		c0.1,1.8,8.8,3.1,14.1,3.7c6.5,0.7,12.3,1.6,11.7,5.1c-0.7,4.2-12.2,0.9-18-0.2c-4.6-0.9-10.3-3.2-11-1.2
		c-0.6,1.9,12.1,5.5,15.8,6.2c4.5,0.9,5.8,2.7,5.1,4.5c-0.7,1.8-3.6,1.6-7.3,0.7c-6.9-1.8-17.1-6-18.1-4.6c-0.9,1.2,2.5,2.7,5.7,3.9
		c3.4,1.2,9,2.5,8.6,4.9c-0.4,2.2-5.4,1.3-11.5-0.7c-10.1-3.2-39.2-13.1-65-34.8c-4-3.4-10.3-0.7-10.3,4.5c0,0,0,0.1,0,0.1
		c0,33.6,36.3,60.8,81,60.8c44.7,0,81-27.2,81-60.8c0-9.2-2.7-17.8-7.5-25.6C1478.5,199.9,1474.8,198.5,1471.4,199.3z"/>
	<g>
		<g>
			<path class="st2" d="M1365,65.9c-1.4,1.7-2,4-1.5,6.4l0.8,3.5c0,0,0,0,0,0l14.7-3.3c0,0,0,0,0,0l-0.8-3.5
				c-0.4-1.8-1.5-3.4-2.9-4.4c0.7-5.4,5-11.9,5.2-12c0.2,0-4.1-4.4-4.1-4.4c-3.6,2.7-5.1,10.9-5.2,14.9c-0.3,0-0.7,0-1.1,0
				c-0.3-4.7-1.8-11.1-6.1-15.2c0,0-2.7,3.1-3.5,4.4c0,0,4,4.5,5.4,8.7c0,0-3-3-6-4.1c0,0-0.9,3-1.2,4.3
				C1358.8,61.2,1362.6,62.8,1365,65.9z"/>
			<path class="st2" d="M1364.6,108.1L1364.6,108.1C1364.6,108.1,1364.6,108.1,1364.6,108.1L1364.6,108.1L1364.6,108.1
				c0.7,0.1,1.3,0.5,1.6,1c0.8,1.6,2.5,2.7,4.5,2.9c0.2,0,0.5,0,0.7,0c1.4,0,2.7-0.5,3.6-1.2c1-0.8,1.6-1.8,1.7-3c0-0.2,0-0.3,0-0.5
				c0-1.5-0.8-3-2.2-4c-0.5-0.4-0.8-1-0.8-1.6c0-0.3,0.1-0.7,0.3-1c0.6-0.9,0.9-1.8,1-2.8c0-0.2,0-0.5,0-0.7c0-1.9-0.8-3.6-2.1-5
				c-1.3-1.4-3.2-2.3-5.4-2.6c-0.3,0-0.7-0.1-1-0.1c-0.7,0-1.3,0.1-1.9,0.2c-0.1,0-0.3,0-0.4,0c-0.4,0-0.8-0.1-1.1-0.3
				c-0.4-0.3-0.7-0.8-0.8-1.3c-0.8-4.7-5.1-8.6-10.5-9.1c-0.5-0.1-0.9-0.1-1.4-0.1c-2.9,0-5.6,1-7.6,2.6c-2,1.6-3.4,3.9-3.8,6.5
				c-0.1,0.5-0.4,1-0.8,1.3c-0.3,0.2-0.7,0.3-1.1,0.3c-0.1,0-0.3,0-0.4-0.1c-0.3-0.1-0.7-0.1-1-0.2c-0.3,0-0.6,0-0.9,0
				c-1.9,0-3.6,0.6-4.9,1.7c-1.3,1-2.1,2.5-2.3,4.1c0,0.2,0,0.4,0,0.6c0,0.4,0,0.8,0.1,1.1l0,0.4c0,0.9-0.6,1.7-1.5,1.9
				c-1.8,0.4-3,1.7-3.1,3.2l0,0.4c0,1.6,1,2.4,2.6,3.4c1.9,1.2-1.8,5.4,1,7.8c3.1,2.7,7.5-0.5,8.6-2.4c0.3-0.5,0.8-0.8,1.4-0.8l0,0
				l0,0l0.3,0l0,0c0.4,0,0.8,0.2,1.1,0.5c1.6,1.6,3.9,2.7,6.3,2.9c0.4,0,0.8,0.1,1.2,0.1c2.8,0,5.5-1.1,7.3-2.9
				c0.4-0.4,0.9-0.6,1.4-0.6c0.2,0,0.4,0,0.6,0.1c0.6,0.2,1.1,0.3,1.7,0.4c0.3,0,0.6,0,0.8,0c2.2,0,4.3-1,5.5-2.6
				c0.4-0.5,0.9-0.7,1.5-0.7L1364.6,108.1z"/>
			<path class="st2" d="M1479.5,64c-1.6-0.6-3.3-0.5-4.7,0.2c-0.6-1.5-1.8-2.7-3.4-3.3c-3.1-1.2-6.6,0.4-7.8,3.5
				c-1.2,3,0.3,6.4,3.3,7.7l-3,7.9c1.5,0.1,3.1,0.4,4.6,1c1.5,0.6,2.8,1.4,4.1,2.3l3-7.9c3.1,1,6.4-0.5,7.6-3.6
				C1484.2,68.7,1482.7,65.2,1479.5,64z"/>
			<path class="st2" d="M1420.1,100.6c5.6,1.3,11.1,0.8,15.9-1.3c0-8.3-0.9-15.3-5.6-22.9c-0.2-0.3-0.6-0.2-0.6,0.2
				c-1.1,7.2-4.5,10.6-3.8,6.5c0.8-4.6,1.2-9.5,1.1-11.1c0-0.3-0.3-0.5-0.6-0.4c-9.4,4.5-15.8,12.2-20.1,20.6
				C1409.9,96.2,1414.6,99.3,1420.1,100.6z M1415.1,87.8c1.6,0,2.9,1.3,2.9,2.9c0,1.6-1.3,2.9-2.9,2.9c-1.6,0-2.9-1.3-2.9-2.9
				C1412.2,89.1,1413.5,87.8,1415.1,87.8z"/>
			<path class="st2" d="M1466.5,84.3c-1.8-0.7-3.7-1-5.6-1c-6.3,0-12.3,3.9-14.7,10.1c-0.5,1.4-0.9,2.8-1,4.3
				c-0.5,6.8-3.9,13-9.9,16.4c-4.6,2.6-8.3,6.8-10.4,12.1c-0.4,1-0.7,2.2-1,3.5c15.9-1.1,44.9-7.5,45-8.4c0.1-4.6,1.7-9.1,4.5-12.9
				c0.9-1.1,1.6-2.4,2.1-3.8c0.7-1.8,1-3.7,1-5.6C1476.6,92.7,1472.8,86.7,1466.5,84.3z"/>
			<path class="st2" d="M1431.5,112.6c1.5-0.8,2.7-1.9,3.8-3.1c0.3-1.9,0.5-3.8,0.6-5.7c-2.9,0.9-5.9,1.3-9,1.3
				c-2.5,0-5-0.3-7.6-0.9c-5.7-1.4-10.7-4.2-14.6-7.9c-2.7,6.7-4.6,15-5.8,22.6c0-0.1,0-0.2,0-0.2c-0.1,0.5-0.2,0.9-0.2,1.4
				c-0.6,3.8-1,7.3-1.3,10.3c2.7,0.1,5.3,0.2,8.1,0.2c4.6,0,9.1-0.2,13.5-0.4c0.3-1.8,0.8-3.2,1.2-4.3
				C1422.5,119.9,1426.6,115.4,1431.5,112.6z"/>
			<path class="st2" d="M1388.2,100.4c-1.2,0.3-2.4-0.4-2.7-1.6c-0.3-1.2,0.4-2.4,1.6-2.7c2.8-0.7,5.5-1.1,7.8-1.4
				c0,0-0.6-4.4-0.9-6.6c-3.3-0.1-7.4,0.2-12.2,1.4c-1.2,0.3-2.4-0.4-2.7-1.6c-0.3-1.2,0.4-2.4,1.6-2.7c4.8-1.2,9.1-1.6,12.6-1.5
				c-1.5-5.6-7.2-9.1-12.9-7.8l-14.7,3.3c-1.5,0.3-2.9,1-4.1,1.9c2,1.9,2.7,3.1,3.2,5.8l0.1,0.1l0.1,0l0,0c6.1-1.1,9.6,2,11.1,3.9
				c1.5,1.9,2.4,4.2,2.4,6.6c0,0.3,0,0.6-0.1,0.9c-0.1,1.3-0.5,1.9-1.2,3l0,0.1l0.1,0.1c3.3,2.2,2.9,6.7,0.6,10
				c-2.2,3.1-7.6,5.1-12.8,0c0,0-0.7-0.1-1.5,0.4c1.8,4.5,4.6,10.4,6.8,15.7c7.4,1.3,15.3,2.3,23.2,2.5c0.2-2.2,0.5-4.6,0.8-7.2
				c0.5-4,1.3-8.5,2.2-13c-0.3-4.4-0.7-8.4-1.2-11C1393.3,99.3,1390.9,99.7,1388.2,100.4z"/>
			<path class="st2" d="M1356.6,114.2c-0.1,0-0.2,0.1-0.3,0.2c-0.2,0.7-1.4,5.4-4,3c-0.4-0.4-0.8-1.4-0.9-1.9c0-0.1-0.1-0.1-0.2-0.1
				c-1.4,0.7-2.9,1.1-4.5,1.2c-0.1,0-0.1,0.1-0.1,0.1c0,0.5,0.1,1.3,0,1.8c-0.2,0.9-1.5,1-2.5,0.5c-1.7-0.9-4.6-2.7-6.7-4.8
				c-0.1-0.1-0.2-0.1-0.3,0c-0.5,0.5-1.3,1.4-1.9,1.8c-0.1,0.1-0.2,0.3-0.1,0.4c1.3,1.3,3.9,3.1,5.3,3.9c4.9,2.7,13.4,5,15.1,4.1
				c3.3-1.7,4.2-6.6,4.9-10.3C1360.5,113.6,1359.6,114.3,1356.6,114.2z"/>
		</g>
	</g>
</g>
</svg>
