<svg width="219" height="39" viewBox="0 0 219 39" fill="none" xmlns="http://www.w3.org/2000/svg">
<path d="M23.3507 10.3774C20.5382 10.3774 18.5367 11.6557 17.2155 13.8324C15.9727 11.6936 13.7227 10.3774 10.6354 10.3774C8.42458 10.3774 6.58007 11.3519 5.25882 13.0604C4.73556 11.5924 3.64978 10.542 1.41282 10.542H1.08578C0.48402 10.542 0 11.0102 0 11.5924V28.8167C0 29.3989 0.48402 29.8671 1.08578 29.8671H4.53933C5.14109 29.8671 5.62511 29.3989 5.62511 28.8167C5.62511 28.8167 5.62511 25.1339 5.62511 21.603C5.7036 17.5279 6.90711 15.6295 9.51036 15.6295C11.5511 15.6295 12.7154 16.604 12.7154 18.8061V28.8167C12.7154 29.3989 13.1994 29.8671 13.8011 29.8671H17.2547C17.8565 29.8671 18.3405 29.3989 18.3405 28.8167V21.9067C18.3405 17.6038 19.5832 15.6169 22.265 15.6169C24.2665 15.6169 25.4307 16.5914 25.4307 18.7934V28.8041C25.4307 29.3862 25.9148 29.8545 26.5165 29.8545H29.9701C30.5718 29.8545 31.0558 29.3862 31.0558 28.8041V18.3632C31.0558 13.6426 28.2433 10.3774 23.3507 10.3774Z" fill="#542D0E"/>
<path d="M51.7903 10.5293H51.5156C49.7103 10.5293 48.6638 11.1874 48.062 12.1999C46.5838 11.2633 44.5692 10.3774 41.8482 10.3774C37.4397 10.3774 33.1489 14.3007 33.1489 21.1221C33.1489 26.3235 36.4324 30.0063 41.5735 30.0063C44.0983 30.0063 46.139 28.9559 47.5911 27.1715C48.0751 28.7281 49.1609 29.8545 51.5156 29.8545H51.7903C52.392 29.8545 52.9153 29.3862 52.9153 28.8041V11.5797C52.9153 10.9976 52.392 10.5293 51.7903 10.5293ZM47.2902 18.7934C47.1725 22.8686 45.2495 24.7669 42.6331 24.7669C40.3438 24.7669 38.7086 23.5646 38.7086 20.8816C38.7086 16.8065 40.8802 15.6042 43.6404 15.6042C44.9617 15.6042 46.3614 16.1104 47.2902 16.4521V18.7934V18.7934Z" fill="#542D0E"/>
<path d="M63.4981 17.7557C62.0199 17.2495 60.607 17.0596 60.607 16.237C60.607 15.6928 61.248 15.3385 62.1245 15.3385C63.812 15.3385 65.1725 15.8447 65.892 16.0345C66.4153 16.1484 67.2918 15.9965 67.5403 15.06C67.7758 14.1235 68.0243 13.2376 68.2206 12.4277C68.3775 11.7316 67.8935 11.3393 67.0955 11.1115C65.6173 10.6812 63.642 10.3774 61.7582 10.3774C57.5852 10.3774 54.9819 13.1743 54.9819 16.5028C54.9819 20.6159 59.1157 21.8941 60.6725 22.3623C62.5955 22.9065 63.8382 23.3748 63.8382 24.0708C63.8382 24.615 63.642 25.0453 61.8367 25.0453C60.1492 25.0453 58.4616 24.653 57.7422 24.4632C57.2189 24.3113 56.3424 24.4252 56.0546 25.3491C55.8192 26.197 55.4921 27.1715 55.2959 27.9814C55.0997 28.6395 55.5706 29.1458 56.3424 29.3356C57.9515 29.8039 59.8352 29.9937 62.1114 29.9937C67.004 29.9937 69.4502 27.2348 69.4502 23.4381C69.4764 19.3756 65.3426 18.3758 63.4981 17.7557Z" fill="#542D0E"/>
<path d="M89.0074 10.5293H88.6803C85.1483 10.5293 84.468 13.0857 84.468 15.8067C84.468 18.5656 84.5073 21.5903 84.5073 21.5903C84.5073 23.8051 83.1076 24.7669 80.8575 24.7669C78.5682 24.7669 77.2077 23.7924 77.2077 21.5903V11.5797C77.2077 10.9976 76.6845 10.5293 76.0827 10.5293H75.808C72.276 10.5293 71.5957 13.0857 71.5957 15.8067C71.5957 18.5656 71.5957 21.5903 71.5957 21.5903C71.5957 26.5513 75.481 30.0063 80.8575 30.0063C86.1948 30.0063 90.0801 26.5513 90.0801 21.5903V11.5797C90.0801 10.9976 89.6091 10.5293 89.0074 10.5293Z" fill="#542D0E"/>
<path d="M111.586 28.8041C111.586 28.8041 110.658 26.6653 109.585 24.1848C108.656 22.1346 107.78 20.7678 106.537 19.844C107.662 18.8315 108.538 17.4014 109.546 15.5031C110.788 13.0226 111.508 11.5798 111.508 11.5798C111.783 10.9977 111.547 10.5294 110.945 10.5294H107.335C106.733 10.5294 106.014 10.9977 105.726 11.5798C105.726 11.5798 105.569 11.8962 104.326 14.3388C103.083 16.7433 102.56 17.3634 99.996 17.5153H98.5963C98.5963 13.2504 98.5963 9.09932 98.5963 7.89703C98.5963 5.17607 97.9161 2.61963 94.384 2.61963H94.057C93.4552 2.61963 92.9712 3.08789 92.9712 3.67005V28.8168C92.9712 29.399 93.4552 29.8672 94.057 29.8672H97.5105C98.1123 29.8672 98.5963 29.399 98.5963 28.8168C98.5963 28.8168 98.5963 26.1844 98.5963 22.7674C102.56 22.7674 103.293 23.0838 104.535 25.906C105.621 28.3485 105.817 28.8168 105.817 28.8168C106.053 29.399 106.746 29.8672 107.335 29.8672H110.945C111.547 29.8546 111.822 29.3863 111.586 28.8041Z" fill="#542D0E"/>
<path d="M125.139 10.3774C122.614 10.3774 120.574 11.4279 119.082 13.2503C118.637 11.6557 117.565 10.5293 115.197 10.5293H114.87C114.268 10.5293 113.784 10.9976 113.784 11.5797V37.4225C113.784 38.0047 114.268 38.473 114.87 38.473H115.197C118.729 38.473 119.409 35.9165 119.409 33.1956C119.409 32.3097 119.409 30.6771 119.409 28.8167C119.409 28.8167 119.409 28.7787 119.409 28.6648C120.77 29.3989 122.575 30.019 124.864 30.019C129.273 30.019 133.564 26.1337 133.564 19.2744C133.564 14.0602 130.267 10.3774 125.139 10.3774ZM123.046 24.7669C121.725 24.7669 120.273 24.2986 119.396 23.9569C119.396 23.2229 119.396 22.4889 119.396 21.7042C119.475 17.5532 121.398 15.6169 124.053 15.6169C126.303 15.6169 127.939 16.8192 127.939 19.5022C127.939 23.5646 125.819 24.7669 123.046 24.7669Z" fill="#E96C24"/>
<path d="M153.526 10.5293H153.251C151.446 10.5293 150.4 11.1874 149.798 12.1999C148.32 11.2633 146.305 10.3774 143.584 10.3774C139.176 10.3774 134.885 14.3007 134.885 21.1221C134.885 26.3235 138.168 30.0063 143.309 30.0063C145.834 30.0063 147.875 28.9559 149.327 27.1715C149.811 28.7281 150.897 29.8545 153.251 29.8545H153.526C154.128 29.8545 154.651 29.3862 154.651 28.8041V11.5797C154.651 10.9976 154.128 10.5293 153.526 10.5293ZM149.039 18.7934C148.921 22.8686 146.998 24.7669 144.382 24.7669C142.093 24.7669 140.458 23.5646 140.458 20.8816C140.458 16.8065 142.629 15.6042 145.389 15.6042C146.711 15.6042 148.11 16.1104 149.039 16.4521V18.7934V18.7934Z" fill="#E96C24"/>
<path d="M199.927 10.5293H199.652C197.847 10.5293 196.8 11.1874 196.198 12.1999C194.72 11.2633 192.705 10.3774 189.984 10.3774C185.576 10.3774 181.285 14.3007 181.285 21.1221C181.285 26.3235 184.569 30.0063 189.71 30.0063C192.235 30.0063 194.275 28.9559 195.727 27.1715C196.211 28.7281 197.297 29.8545 199.652 29.8545H199.927C200.528 29.8545 201.052 29.3862 201.052 28.8041V11.5797C201.052 10.9976 200.528 10.5293 199.927 10.5293ZM195.44 18.7934C195.322 22.8686 193.399 24.7669 190.782 24.7669C188.493 24.7669 186.858 23.5646 186.858 20.8816C186.858 16.8065 189.029 15.6042 191.79 15.6042C193.111 15.6042 194.511 16.1104 195.44 16.4521V18.7934V18.7934Z" fill="#E96C24"/>
<path d="M217.809 10.5293C217.168 10.4154 216.527 10.3774 215.808 10.3774C213.283 10.3774 211.243 11.4279 209.751 13.2503C209.306 11.6557 208.221 10.5293 205.866 10.5293H205.539C204.937 10.5293 204.453 10.9976 204.453 11.5797V28.8041C204.453 29.3862 204.937 29.8545 205.539 29.8545H208.992C209.594 29.8545 210.078 29.3862 210.078 28.8041C210.078 28.8041 210.078 25.2352 210.078 21.7042C210.157 17.5532 212.001 15.7687 214.644 15.6169C215.886 15.5409 217.051 16.0851 217.456 15.2246C217.862 14.4146 218.542 13.0098 218.895 12.1619C219.144 11.6177 219.013 10.8457 217.809 10.5293Z" fill="#E96C24"/>
<path d="M176.406 19.1609C172.312 20.0595 168.544 19.6165 167.223 19.4267C166.386 19.3128 165.758 19.1356 165.836 18.8699C165.915 18.5661 166.66 18.7306 167.131 18.7813C167.576 18.8319 168.06 18.8445 168.021 18.6547C167.982 18.4396 166.543 18.351 165.627 18.1738C165.143 18.0852 164.79 17.946 164.816 17.6929C164.842 17.4524 165.104 17.3132 165.679 17.4651C166.163 17.579 167.864 17.8827 167.903 17.6296C167.942 17.3638 167.131 17.3132 166.543 17.1613C165.797 16.9715 164.253 16.7057 164.41 16.1995C164.541 15.7692 165.274 15.9717 166.085 16.2628C166.739 16.4906 167.838 16.8196 167.956 16.6298C168.099 16.3894 167.066 16.0983 165.98 15.5288C165.627 15.3389 165.091 15.0099 165.378 14.6555C165.666 14.3138 166.242 14.8327 166.857 15.1364C167.681 15.5414 168.976 16.2375 169.198 16.0603C169.355 15.9338 168.426 15.3136 168.165 15.0352C167.615 14.453 168.322 13.8835 168.858 14.4024C169.12 14.6555 170.14 15.7059 171.775 16.1616C173.528 16.6551 175.491 16.6804 177.505 16.073C178.133 15.8831 178.565 15.301 178.565 14.6682V14.6555C178.565 13.1369 177.963 11.7321 176.916 10.5424C176.707 10.302 176.354 10.2261 176.04 10.3146C173.698 11.0107 170.938 11.4157 167.995 11.4157C165.025 11.4157 162.265 11.0107 159.897 10.302C159.583 10.2007 159.23 10.2893 159.021 10.5298C157.974 11.7194 157.359 13.1369 157.359 14.6682C157.359 19.2748 162.5 21.5655 164.698 21.8439C166.373 22.0591 167.772 21.6035 168.112 21.4896C168.832 21.2491 169.211 22.0591 168.453 22.3502C168.086 22.4894 166.974 22.6666 167.066 22.8437C167.184 23.1095 168.662 23.0209 169.591 22.9956C170.271 22.9829 171.03 22.7678 171.134 23.1854C171.239 23.6157 170.611 23.6917 170.192 23.717C168.963 23.7802 167.903 23.6031 167.916 23.8815C167.929 24.1093 169.067 24.2738 169.761 24.3498C170.611 24.4383 171.37 24.5522 171.291 24.9952C171.2 25.5267 169.695 25.1091 168.937 24.9699C168.335 24.856 167.589 24.5649 167.498 24.818C167.419 25.0585 169.081 25.5141 169.565 25.6027C170.153 25.7166 170.323 25.9444 170.232 26.1722C170.14 26.4 169.761 26.3747 169.277 26.2608C168.374 26.033 167.04 25.5014 166.909 25.6786C166.791 25.8305 167.236 26.0203 167.655 26.1722C168.099 26.324 168.832 26.4886 168.78 26.7923C168.727 27.0707 168.073 26.9568 167.275 26.7037C165.954 26.2987 162.147 25.0458 158.772 22.2995C158.249 21.8692 157.425 22.2109 157.425 22.869V22.8817C157.425 27.134 162.173 30.5763 168.021 30.5763C173.868 30.5763 178.617 27.134 178.617 22.8817C178.617 21.7174 178.264 20.629 177.636 19.6419C177.335 19.2369 176.851 19.0597 176.406 19.1609Z" fill="#E96C24"/>
<path d="M162.487 2.27802C162.304 2.49316 162.226 2.78424 162.291 3.08798L162.396 3.53092L164.319 3.11329L164.214 2.67034C164.162 2.44254 164.018 2.24005 163.835 2.11349C163.926 1.43009 164.489 0.60747 164.515 0.594815C164.541 0.594815 163.979 0.0379668 163.979 0.0379668C163.508 0.379669 163.311 1.41743 163.298 1.92366C163.259 1.92366 163.207 1.92366 163.154 1.92366C163.115 1.32884 162.919 0.518881 162.356 0C162.356 0 162.003 0.392325 161.899 0.556848C161.899 0.556848 162.422 1.12635 162.605 1.65789C162.605 1.65789 162.213 1.27822 161.82 1.13901C161.82 1.13901 161.702 1.51868 161.663 1.6832C161.676 1.6832 162.173 1.88569 162.487 2.27802Z" fill="#95C83D"/>
<path d="M162.435 7.61879C162.526 7.63144 162.605 7.68206 162.644 7.74534C162.749 7.94783 162.971 8.08705 163.233 8.11236C163.259 8.11236 163.298 8.11236 163.324 8.11236C163.507 8.11236 163.678 8.04908 163.795 7.96049C163.926 7.85924 164.005 7.73269 164.018 7.58082C164.018 7.55551 164.018 7.54285 164.018 7.51754C164.018 7.32771 163.913 7.13787 163.73 7.01132C163.664 6.96069 163.625 6.88476 163.625 6.80883C163.625 6.77086 163.638 6.72024 163.664 6.68227C163.743 6.56837 163.782 6.45447 163.795 6.32791C163.795 6.3026 163.795 6.26463 163.795 6.23932C163.795 5.99886 163.691 5.78372 163.521 5.60654C163.35 5.42936 163.102 5.31546 162.814 5.27749C162.775 5.27749 162.723 5.26484 162.683 5.26484C162.592 5.26484 162.513 5.27749 162.435 5.29015C162.422 5.29015 162.395 5.29015 162.382 5.29015C162.33 5.29015 162.278 5.27749 162.239 5.25218C162.186 5.21422 162.147 5.15094 162.134 5.08766C162.029 4.49284 161.467 3.99927 160.76 3.936C160.695 3.92334 160.643 3.92334 160.577 3.92334C160.198 3.92334 159.845 4.0499 159.583 4.25239C159.321 4.45488 159.138 4.74596 159.086 5.075C159.073 5.13828 159.034 5.20156 158.981 5.23953C158.942 5.26484 158.89 5.27749 158.837 5.27749C158.824 5.27749 158.798 5.27749 158.785 5.26484C158.746 5.25218 158.693 5.25218 158.654 5.23953C158.615 5.23953 158.576 5.23953 158.536 5.23953C158.288 5.23953 158.065 5.31546 157.895 5.45467C157.725 5.58123 157.621 5.77106 157.595 5.97355C157.595 5.99886 157.595 6.02418 157.595 6.04949C157.595 6.10011 157.595 6.15073 157.608 6.1887V6.23932C157.608 6.35322 157.529 6.45447 157.411 6.47978C157.176 6.5304 157.019 6.69493 157.006 6.88476V6.93538C157.006 7.13787 157.137 7.23912 157.346 7.36567C157.595 7.51754 157.111 8.04908 157.477 8.35281C157.882 8.69452 158.458 8.28954 158.602 8.04908C158.641 7.9858 158.706 7.94783 158.785 7.94783H158.824C158.877 7.94783 158.929 7.97314 158.968 8.01111C159.177 8.2136 159.478 8.35281 159.792 8.37813C159.845 8.37813 159.897 8.39078 159.949 8.39078C160.316 8.39078 160.669 8.25157 160.904 8.02377C160.957 7.97315 161.022 7.94783 161.087 7.94783C161.114 7.94783 161.14 7.94783 161.166 7.96049C161.244 7.9858 161.31 7.99846 161.388 8.01111C161.427 8.01111 161.467 8.01111 161.493 8.01111C161.781 8.01111 162.055 7.88456 162.212 7.68206C162.265 7.61879 162.33 7.59348 162.409 7.59348L162.435 7.61879Z" fill="#95C83D"/>
<path d="M177.465 2.03762C177.256 1.96169 177.034 1.97434 176.85 2.06293C176.772 1.8731 176.615 1.72123 176.406 1.64529C176 1.49343 175.542 1.69592 175.385 2.08824C175.228 2.46791 175.424 2.8982 175.817 3.06273L175.424 4.06252C175.621 4.07518 175.83 4.11314 176.026 4.18908C176.222 4.26501 176.393 4.36626 176.563 4.48016L176.955 3.48036C177.361 3.60692 177.792 3.41708 177.949 3.02476C178.08 2.63243 177.884 2.18949 177.465 2.03762Z" fill="#95C83D"/>
<path d="M169.695 6.66952C170.428 6.83404 171.147 6.77077 171.775 6.505C171.775 5.45458 171.657 4.56869 171.042 3.60686C171.016 3.56889 170.964 3.58155 170.964 3.63217C170.82 4.54337 170.375 4.97367 170.467 4.45478C170.571 3.87262 170.624 3.2525 170.611 3.05001C170.611 3.01204 170.571 2.98673 170.532 2.99939C169.303 3.56889 168.465 4.54337 167.903 5.60645C168.361 6.11267 168.976 6.505 169.695 6.66952ZM169.041 5.0496C169.25 5.0496 169.42 5.21412 169.42 5.41661C169.42 5.6191 169.25 5.78363 169.041 5.78363C168.832 5.78363 168.662 5.6191 168.662 5.41661C168.662 5.21412 168.832 5.0496 169.041 5.0496Z" fill="#95C83D"/>
<path d="M175.765 4.60654C175.53 4.51795 175.281 4.47998 175.033 4.47998C174.208 4.47998 173.424 4.97355 173.11 5.7582C173.044 5.93538 172.992 6.11256 172.979 6.30239C172.913 7.16298 172.469 7.94763 171.684 8.37792C171.082 8.70696 170.598 9.2385 170.323 9.90925C170.271 10.0358 170.232 10.1877 170.192 10.3522C172.272 10.213 176.066 9.40302 176.079 9.28912C176.092 8.70696 176.302 8.13746 176.668 7.65655C176.786 7.51733 176.877 7.35281 176.943 7.17563C177.034 6.94783 177.073 6.70737 177.073 6.46692C177.086 5.66961 176.589 4.91027 175.765 4.60654Z" fill="#95C83D"/>
<path d="M171.186 8.18787C171.383 8.08662 171.54 7.94741 171.684 7.79554C171.723 7.55509 171.749 7.31463 171.762 7.07417C171.383 7.18807 170.99 7.2387 170.585 7.2387C170.258 7.2387 169.931 7.20073 169.59 7.12479C168.845 6.94762 168.191 6.59326 167.681 6.125C167.327 6.97293 167.079 8.02335 166.922 8.98517C166.922 8.97252 166.922 8.95986 166.922 8.95986C166.909 9.02314 166.896 9.07376 166.896 9.13704C166.817 9.61796 166.765 10.0609 166.726 10.4406C167.079 10.4532 167.419 10.4659 167.785 10.4659C168.387 10.4659 168.976 10.4406 169.551 10.4153C169.59 10.1875 169.656 10.0103 169.708 9.87107C170.009 9.11173 170.545 8.54223 171.186 8.18787Z" fill="#95C83D"/>
<path d="M165.522 6.64423C165.365 6.6822 165.208 6.59361 165.169 6.44174C165.129 6.28987 165.221 6.138 165.378 6.10004C165.744 6.01145 166.097 5.96082 166.398 5.92286C166.398 5.92286 166.32 5.36601 166.28 5.08758C165.849 5.07493 165.312 5.1129 164.684 5.26476C164.528 5.30273 164.371 5.21414 164.331 5.06227C164.292 4.91041 164.384 4.75854 164.541 4.72057C165.169 4.5687 165.731 4.51808 166.189 4.53074C165.993 3.82202 165.247 3.37907 164.501 3.5436L162.578 3.96123C162.382 3.9992 162.199 4.08779 162.042 4.20169C162.304 4.44215 162.395 4.59402 162.461 4.93572L162.474 4.94837H162.487C163.285 4.80916 163.743 5.20149 163.939 5.44194C164.135 5.6824 164.253 5.97348 164.253 6.27722C164.253 6.31518 164.253 6.35315 164.24 6.39112C164.227 6.55564 164.174 6.63157 164.083 6.77079V6.78344L164.096 6.7961C164.528 7.07452 164.475 7.64402 164.174 8.06166C163.887 8.45399 163.18 8.7071 162.5 8.06166C162.5 8.06166 162.408 8.049 162.304 8.11228C162.539 8.68179 162.905 9.42847 163.193 10.0992C164.161 10.2637 165.195 10.3903 166.228 10.4156C166.254 10.1372 166.294 9.83345 166.333 9.5044C166.398 8.99818 166.503 8.42867 166.621 7.85917C166.581 7.30232 166.529 6.7961 166.464 6.46705C166.189 6.50502 165.875 6.55564 165.522 6.64423Z" fill="#95C83D"/>
<path d="M161.388 8.39066C161.375 8.39066 161.362 8.40332 161.349 8.41597C161.323 8.50456 161.166 9.09938 160.826 8.79564C160.773 8.74502 160.721 8.61846 160.708 8.55518C160.708 8.54253 160.695 8.54253 160.682 8.54253C160.499 8.63112 160.303 8.68174 160.093 8.6944C160.08 8.6944 160.08 8.70705 160.08 8.70705C160.08 8.77033 160.093 8.87158 160.08 8.93485C160.054 9.04875 159.884 9.06141 159.753 8.99813C159.531 8.88423 159.151 8.65643 158.877 8.39066C158.864 8.378 158.85 8.378 158.837 8.39066C158.772 8.45394 158.667 8.56784 158.589 8.61846C158.576 8.63112 158.563 8.65643 158.576 8.66909C158.746 8.83361 159.086 9.06141 159.269 9.16266C159.91 9.50436 161.022 9.79544 161.244 9.68154C161.676 9.46639 161.794 8.84626 161.885 8.37801C161.898 8.31473 161.781 8.40332 161.388 8.39066Z" fill="#95C83D"/>
</svg>
